<?xml version="1.0" encoding="UTF-8"?>
<!DOCTYPE svg PUBLIC "-//W3C//DTD SVG 1.1//EN" "http://www.w3.org/Graphics/SVG/1.1/DTD/svg11.dtd">
<svg xmlns="http://www.w3.org/2000/svg" version="1.1" width="512px" height="512px" style="shape-rendering:geometricPrecision; text-rendering:geometricPrecision; image-rendering:optimizeQuality; fill-rule:evenodd; clip-rule:evenodd" xmlns:xlink="http://www.w3.org/1999/xlink">
<g><path style="opacity:0.93" fill="#000000" d="M 349.5,38.5 C 406.859,40.0819 450.026,65.4152 479,114.5C 505.02,168.936 501.187,221.103 467.5,271C 477.596,286.758 487.262,302.758 496.5,319C 496.129,325.041 492.962,327.874 487,327.5C 463.743,322.949 440.577,317.949 417.5,312.5C 385.866,327.542 352.866,331.542 318.5,324.5C 318.575,318.471 318.241,312.471 317.5,306.5C 350.168,314.714 381.501,311.214 411.5,296C 413.167,295.833 414.833,295.667 416.5,295.5C 433.603,298.693 450.603,302.359 467.5,306.5C 467.833,306.167 468.167,305.833 468.5,305.5C 460.593,294.182 453.593,282.349 447.5,270C 447.625,268.373 448.125,266.873 449,265.5C 478.979,227.591 486.312,185.591 471,139.5C 448.365,87.2485 408.532,59.2485 351.5,55.5C 295.675,58.8149 256.175,85.8149 233,136.5C 227.274,150.964 224.44,165.964 224.5,181.5C 218.98,179.604 213.48,177.604 208,175.5C 212.215,116.534 241.048,74.7009 294.5,50C 312.298,42.9282 330.631,39.0949 349.5,38.5 Z"/></g>
<g><path style="opacity:1" fill="#000000" d="M 287.5,127.5 C 330.167,127.5 372.833,127.5 415.5,127.5C 415.5,132.833 415.5,138.167 415.5,143.5C 372.833,143.5 330.167,143.5 287.5,143.5C 287.5,138.167 287.5,132.833 287.5,127.5 Z"/></g>
<g><path style="opacity:1" fill="#000000" d="M 287.5,175.5 C 330.167,175.5 372.833,175.5 415.5,175.5C 415.5,180.833 415.5,186.167 415.5,191.5C 372.833,191.5 330.167,191.5 287.5,191.5C 287.5,186.167 287.5,180.833 287.5,175.5 Z"/></g>
<g><path style="opacity:0.987" fill="#000000" d="M 142.5,183.5 C 212.482,179.556 262.649,208.889 293,271.5C 315.383,334.457 302.883,389.29 255.5,436C 213.764,470.461 166.764,480.128 114.5,465C 106.573,462.025 98.7396,458.859 91,455.5C 66.6667,460.833 42.3333,466.167 18,471.5C 17.1667,471.167 16.3333,470.833 15.5,470.5C 26.1667,453.5 36.8333,436.5 47.5,419.5C 13.4337,374.205 6.26707,324.872 26,271.5C 49.2158,221.446 88.0491,192.113 142.5,183.5 Z M 115.5,279.5 C 120.844,279.334 126.177,279.501 131.5,280C 134.196,280.69 136.363,282.19 138,284.5C 146.307,314.73 154.141,345.064 161.5,375.5C 156.5,375.5 151.5,375.5 146.5,375.5C 143.833,364.833 141.167,354.167 138.5,343.5C 128.167,343.5 117.833,343.5 107.5,343.5C 105.475,353.933 102.975,364.266 100,374.5C 94.9283,375.471 89.7616,375.805 84.5,375.5C 92.3288,345.519 100.162,315.519 108,285.5C 109.542,282.108 112.042,280.108 115.5,279.5 Z M 179.5,279.5 C 197.833,279.5 216.167,279.5 234.5,279.5C 234.5,284.833 234.5,290.167 234.5,295.5C 227.833,295.5 221.167,295.5 214.5,295.5C 214.5,316.833 214.5,338.167 214.5,359.5C 221.167,359.5 227.833,359.5 234.5,359.5C 234.5,364.833 234.5,370.167 234.5,375.5C 216.167,375.5 197.833,375.5 179.5,375.5C 179.5,370.167 179.5,364.833 179.5,359.5C 186.167,359.5 192.833,359.5 199.5,359.5C 199.5,338.167 199.5,316.833 199.5,295.5C 192.833,295.5 186.167,295.5 179.5,295.5C 179.5,290.167 179.5,284.833 179.5,279.5 Z"/></g>
<g><path style="opacity:1" fill="#000000" d="M 319.5,223.5 C 351.5,223.5 383.5,223.5 415.5,223.5C 415.5,228.833 415.5,234.167 415.5,239.5C 383.5,239.5 351.5,239.5 319.5,239.5C 319.5,234.167 319.5,228.833 319.5,223.5 Z"/></g>
<g><path style="opacity:0.913" fill="#000000" d="M 120.5,295.5 C 122.467,295.261 124.301,295.594 126,296.5C 128.663,306.817 131.163,317.15 133.5,327.5C 126.468,327.83 119.468,327.497 112.5,326.5C 115.326,316.196 117.993,305.863 120.5,295.5 Z"/></g>
</svg>
