<?xml version="1.0" encoding="UTF-8"?>
<!DOCTYPE svg PUBLIC "-//W3C//DTD SVG 1.1//EN" "http://www.w3.org/Graphics/SVG/1.1/DTD/svg11.dtd">
<svg xmlns="http://www.w3.org/2000/svg" version="1.1" width="512px" height="512px" style="shape-rendering:geometricPrecision; text-rendering:geometricPrecision; image-rendering:optimizeQuality; fill-rule:evenodd; clip-rule:evenodd" xmlns:xlink="http://www.w3.org/1999/xlink">
<g><path style="opacity:0.933" fill="#000000" d="M 349.5,30.5 C 410.827,32.4121 456.66,59.7455 487,112.5C 510.28,159.818 510.28,207.151 487,254.5C 482.999,261.84 478.499,268.84 473.5,275.5C 482.833,291.504 492.666,307.17 503,322.5C 505.474,333.686 500.974,337.853 489.5,335C 466.475,329.895 443.475,324.729 420.5,319.5C 385.879,336.494 349.879,340.161 312.5,330.5C 307.965,394.448 276.965,440.281 219.5,468C 175.867,485.253 132.867,483.753 90.5,463.5C 65.5288,469.294 40.5288,474.961 15.5,480.5C 8.38471,478.945 5.88471,474.612 8,467.5C 17.965,451.734 27.7983,435.901 37.5,420C 4.48286,372.533 -1.68381,321.699 19,267.5C 47.3338,208.545 94.3338,177.545 160,174.5C 173.279,174.92 186.279,176.92 199,180.5C 203.401,114.137 235.901,67.6375 296.5,41C 313.759,34.6835 331.426,31.1835 349.5,30.5 Z M 347.5,47.5 C 405.203,48.7709 447.37,74.7709 474,125.5C 496.062,177.721 489.729,226.055 455,270.5C 454.654,272.218 454.154,273.885 453.5,275.5C 460.485,288.134 467.985,300.467 476,312.5C 476.688,313.332 476.521,313.998 475.5,314.5C 456.971,309.868 438.304,305.868 419.5,302.5C 417.833,302.667 416.167,302.833 414.5,303C 381.834,319.666 347.834,322.999 312.5,313C 303.399,252.916 271.233,210.416 216,185.5C 217.867,127.908 244.367,86.0747 295.5,60C 312.245,52.8227 329.579,48.656 347.5,47.5 Z M 158.5,191.5 C 220.246,194.779 263.079,224.779 287,281.5C 304.105,337.244 292.271,385.744 251.5,427C 214.219,459.32 171.552,469.653 123.5,458C 114.768,455.645 106.435,452.312 98.5,448C 96.0912,447.065 93.5912,446.565 91,446.5C 72.3713,449.926 53.8713,453.926 35.5,458.5C 34.479,457.998 34.3123,457.332 35,456.5C 41.4174,445.997 48.0841,435.663 55,425.5C 56.5039,421.961 56.8372,418.295 56,414.5C 21.2694,370.042 14.9361,321.709 37,269.5C 62.7872,220.684 103.287,194.684 158.5,191.5 Z M 121.5,295.5 C 123.124,295.36 124.29,296.027 125,297.5C 127.817,307.435 130.317,317.435 132.5,327.5C 126.158,327.666 119.825,327.5 113.5,327C 116.556,316.609 119.223,306.109 121.5,295.5 Z"/></g>
<g><path style="opacity:1" fill="#000000" d="M 287.5,127.5 C 330.167,127.5 372.833,127.5 415.5,127.5C 415.5,132.833 415.5,138.167 415.5,143.5C 372.833,143.5 330.167,143.5 287.5,143.5C 287.5,138.167 287.5,132.833 287.5,127.5 Z"/></g>
<g><path style="opacity:1" fill="#000000" d="M 287.5,175.5 C 330.167,175.5 372.833,175.5 415.5,175.5C 415.5,180.833 415.5,186.167 415.5,191.5C 372.833,191.5 330.167,191.5 287.5,191.5C 287.5,186.167 287.5,180.833 287.5,175.5 Z"/></g>
<g><path style="opacity:1" fill="#000000" d="M 319.5,223.5 C 351.5,223.5 383.5,223.5 415.5,223.5C 415.5,228.833 415.5,234.167 415.5,239.5C 383.5,239.5 351.5,239.5 319.5,239.5C 319.5,234.167 319.5,228.833 319.5,223.5 Z"/></g>
<g><path style="opacity:0.946" fill="#000000" d="M 110.5,279.5 C 118.84,279.334 127.173,279.5 135.5,280C 136.667,281.167 137.833,282.333 139,283.5C 147.095,314.05 155.262,344.55 163.5,375C 157.472,375.83 151.472,375.664 145.5,374.5C 142.362,364.282 139.695,353.948 137.5,343.5C 128.161,343.334 118.827,343.5 109.5,344C 106.444,354.391 103.777,364.891 101.5,375.5C 95.5,375.5 89.5,375.5 83.5,375.5C 90.8394,346.476 98.3394,317.476 106,288.5C 106.656,285.004 108.156,282.004 110.5,279.5 Z M 121.5,295.5 C 119.223,306.109 116.556,316.609 113.5,327C 119.825,327.5 126.158,327.666 132.5,327.5C 130.317,317.435 127.817,307.435 125,297.5C 124.29,296.027 123.124,295.36 121.5,295.5 Z"/></g>
<g><path style="opacity:0.967" fill="#000000" d="M 178.5,279.5 C 197.5,279.5 216.5,279.5 235.5,279.5C 235.5,284.833 235.5,290.167 235.5,295.5C 228.833,295.5 222.167,295.5 215.5,295.5C 215.5,316.833 215.5,338.167 215.5,359.5C 222.167,359.5 228.833,359.5 235.5,359.5C 235.5,364.833 235.5,370.167 235.5,375.5C 216.5,375.5 197.5,375.5 178.5,375.5C 178.5,370.167 178.5,364.833 178.5,359.5C 185.167,359.5 191.833,359.5 198.5,359.5C 198.5,338.167 198.5,316.833 198.5,295.5C 191.833,295.5 185.167,295.5 178.5,295.5C 178.5,290.167 178.5,284.833 178.5,279.5 Z"/></g>
</svg>
