<?xml version="1.0" encoding="UTF-8"?>
<!DOCTYPE svg PUBLIC "-//W3C//DTD SVG 1.1//EN" "http://www.w3.org/Graphics/SVG/1.1/DTD/svg11.dtd">
<svg xmlns="http://www.w3.org/2000/svg" version="1.1" width="512px" height="512px" style="shape-rendering:geometricPrecision; text-rendering:geometricPrecision; image-rendering:optimizeQuality; fill-rule:evenodd; clip-rule:evenodd" xmlns:xlink="http://www.w3.org/1999/xlink">
<g><path style="opacity:0.959" fill="#000000" d="M 140.5,41.5 C 220.189,41.0262 299.855,41.5262 379.5,43C 418.952,50.4622 446.452,72.6288 462,109.5C 465.864,119.486 468.197,129.819 469,140.5C 469.667,217.167 469.667,293.833 469,370.5C 462.831,419.33 436.331,451.163 389.5,466C 383.248,467.517 376.914,468.517 370.5,469C 293.833,469.667 217.167,469.667 140.5,469C 91.6664,462.827 59.833,436.327 45,389.5C 43.4828,383.248 42.4828,376.914 42,370.5C 41.3333,293.833 41.3333,217.167 42,140.5C 50.3409,82.9926 83.1743,49.9926 140.5,41.5 Z M 147.5,63.5 C 223.517,63.0371 299.517,63.5371 375.5,65C 410.05,72.5542 432.883,93.0542 444,126.5C 445.769,133.724 446.769,141.057 447,148.5C 447.667,219.833 447.667,291.167 447,362.5C 444.329,403.707 423.495,430.874 384.5,444C 377.276,445.769 369.943,446.769 362.5,447C 291.167,447.667 219.833,447.667 148.5,447C 107.293,444.329 80.1261,423.495 67,384.5C 65.2311,377.276 64.2311,369.943 64,362.5C 63.3333,291.167 63.3333,219.833 64,148.5C 67.028,105.481 89.1946,77.9807 130.5,66C 136.303,65.1088 141.97,64.2754 147.5,63.5 Z"/></g>
<g><path style="opacity:0.916" fill="#000000" d="M 177.5,169.5 C 181.966,169.156 185.966,170.323 189.5,173C 211.347,195.014 233.347,216.847 255.5,238.5C 277.653,216.847 299.653,195.014 321.5,173C 327.503,168.19 333.336,168.357 339,173.5C 342.409,179.052 342.076,184.385 338,189.5C 315.986,211.347 294.153,233.347 272.5,255.5C 294.153,277.653 315.986,299.653 338,321.5C 342.81,327.503 342.643,333.336 337.5,339C 331.948,342.409 326.615,342.076 321.5,338C 299.653,315.986 277.653,294.153 255.5,272.5C 233.347,294.153 211.347,315.986 189.5,338C 183.497,342.81 177.664,342.643 172,337.5C 168.591,331.948 168.924,326.615 173,321.5C 195.014,299.653 216.847,277.653 238.5,255.5C 216.847,233.347 195.014,211.347 173,189.5C 167.339,181.109 168.839,174.442 177.5,169.5 Z"/></g>
</svg>
