<?xml version="1.0" encoding="UTF-8"?>
<!DOCTYPE svg PUBLIC "-//W3C//DTD SVG 1.1//EN" "http://www.w3.org/Graphics/SVG/1.1/DTD/svg11.dtd">
<svg xmlns="http://www.w3.org/2000/svg" version="1.1" width="512px" height="494px" style="shape-rendering:geometricPrecision; text-rendering:geometricPrecision; image-rendering:optimizeQuality; fill-rule:evenodd; clip-rule:evenodd" xmlns:xlink="http://www.w3.org/1999/xlink">
<g><path style="opacity:0.994" fill="#000000" d="M 214.5,-0.5 C 224.167,-0.5 233.833,-0.5 243.5,-0.5C 273.033,4.59872 297.033,18.9321 315.5,42.5C 350.209,28.3872 382.209,32.8872 411.5,56C 435.787,79.5273 445.287,108.027 440,141.5C 479.014,151.678 502.847,176.344 511.5,215.5C 511.5,224.5 511.5,233.5 511.5,242.5C 500.639,289.018 471.306,314.018 423.5,317.5C 422.626,350.09 408.626,375.256 381.5,393C 349.083,410.227 317.083,409.561 285.5,391C 268.945,378.735 257.112,362.902 250,343.5C 213.764,359.321 180.597,354.487 150.5,329C 147.353,325.019 144.02,321.186 140.5,317.5C 105.325,341.317 69.9918,341.484 34.5,318C 15.9578,302.971 4.29109,283.804 -0.5,260.5C -0.5,251.5 -0.5,242.5 -0.5,233.5C 3.69062,209.479 15.524,190.145 35,175.5C 29.8695,129.241 48.0362,96.0742 89.5,76C 101.946,70.8416 114.779,69.0082 128,70.5C 143.816,30.8404 172.649,7.17377 214.5,-0.5 Z"/></g>
<g><path style="opacity:0.974" fill="#000000" d="M 160.5,369.5 C 196.112,369.946 212.946,387.946 211,423.5C 206.065,442.102 194.232,453.602 175.5,458C 147.086,460.565 129.586,448.065 123,420.5C 121.554,393.128 134.054,376.128 160.5,369.5 Z"/></g>
<g><path style="opacity:0.958" fill="#000000" d="M 86.5,493.5 C 81.5,493.5 76.5,493.5 71.5,493.5C 54.8857,486.271 49.0524,473.938 54,456.5C 60.8028,443.184 71.6361,438.017 86.5,441C 101.88,446.918 108.047,458.084 105,474.5C 101.983,484.016 95.8159,490.349 86.5,493.5 Z"/></g>
</svg>
