<?xml version="1.0" encoding="UTF-8"?>
<!DOCTYPE svg PUBLIC "-//W3C//DTD SVG 1.1//EN" "http://www.w3.org/Graphics/SVG/1.1/DTD/svg11.dtd">
<svg xmlns="http://www.w3.org/2000/svg" version="1.1" width="512px" height="512px" style="shape-rendering:geometricPrecision; text-rendering:geometricPrecision; image-rendering:optimizeQuality; fill-rule:evenodd; clip-rule:evenodd" xmlns:xlink="http://www.w3.org/1999/xlink">
<g><path style="opacity:0.947" fill="#000000" d="M 395.5,-0.5 C 404.833,-0.5 414.167,-0.5 423.5,-0.5C 472.614,9.61392 501.947,39.2806 511.5,88.5C 511.5,97.1667 511.5,105.833 511.5,114.5C 504.894,154.94 482.561,182.774 444.5,198C 395.556,212.24 355.389,199.406 324,159.5C 293.755,175.037 263.922,191.203 234.5,208C 246.477,239.671 246.477,271.338 234.5,303C 263.922,319.797 293.755,335.963 324,351.5C 357.501,309.247 399.668,297.413 450.5,316C 456.151,325.527 453.651,331.694 443,334.5C 405.187,321.203 372.854,329.203 346,358.5C 328.003,382.496 323.67,408.83 333,437.5C 334.306,441.446 336.139,445.112 338.5,448.5C 345.51,433.828 356.843,424.161 372.5,419.5C 370.309,415.76 368.809,411.76 368,407.5C 362.38,381.928 370.88,363.094 393.5,351C 422.27,343.465 441.437,353.631 451,381.5C 451.667,390.167 451.667,398.833 451,407.5C 450.191,411.76 448.691,415.76 446.5,419.5C 462.13,424.13 473.464,433.797 480.5,448.5C 489.373,432.633 492.539,415.633 490,397.5C 488.479,390.081 486.645,382.748 484.5,375.5C 485.085,369.081 488.585,365.415 495,364.5C 501.932,365.974 505.932,370.307 507,377.5C 508.71,383.581 510.21,389.581 511.5,395.5C 511.5,404.833 511.5,414.167 511.5,423.5C 501.837,472.496 472.504,501.829 423.5,511.5C 414.167,511.5 404.833,511.5 395.5,511.5C 353.28,503.448 325.113,479.114 311,438.5C 304.883,415.838 306.05,393.504 314.5,371.5C 284.82,354.658 254.82,338.325 224.5,322.5C 189.867,369.662 143.867,386.495 86.5,373C 37.7685,356.014 8.76847,322.181 -0.5,271.5C -0.5,261.167 -0.5,250.833 -0.5,240.5C 1.79063,225.127 6.62397,210.46 14,196.5C 19.5818,191.095 25.2485,190.761 31,195.5C 32.1306,197.725 32.9639,200.058 33.5,202.5C 29.4399,211.956 25.9399,221.622 23,231.5C 17.2979,256.291 20.2979,279.957 32,302.5C 41.1098,282.232 56.6098,269.899 78.5,265.5C 71.5953,254.882 68.5953,243.216 69.5,230.5C 70.1233,196.212 87.4566,177.212 121.5,173.5C 139.748,174.206 154.248,181.873 165,196.5C 173.049,211.183 175.715,226.85 173,243.5C 172.032,251.575 169.198,258.908 164.5,265.5C 186.39,269.899 201.89,282.232 211,302.5C 230.562,260.557 225.562,221.891 196,186.5C 167.214,158.092 133.048,148.592 93.5,158C 85.0426,161.313 76.5426,164.48 68,167.5C 58.5984,164.952 55.9317,159.285 60,150.5C 71.9458,142.403 85.1124,137.237 99.5,135C 152.165,127.705 193.832,145.539 224.5,188.5C 254.413,172.627 284.246,156.627 314,140.5C 306.59,119.575 305.257,98.2414 310,76.5C 311.198,70.5644 313.365,65.0644 316.5,60C 324.48,55.3669 330.314,57.2002 334,65.5C 332.573,73.474 330.907,81.474 329,89.5C 326.461,107.633 329.627,124.633 338.5,140.5C 345.536,125.797 356.87,116.13 372.5,111.5C 370.309,107.76 368.809,103.76 368,99.5C 364.099,81.6123 367.932,65.779 379.5,52C 393.035,40.2744 408.368,37.2744 425.5,43C 438.676,49.1827 447.176,59.3494 451,73.5C 451.667,82.1667 451.667,90.8333 451,99.5C 450.191,103.76 448.691,107.76 446.5,111.5C 462.13,116.13 473.464,125.797 480.5,140.5C 489.373,124.633 492.539,107.633 490,89.5C 484.273,58.4377 466.773,36.9377 437.5,25C 416.686,18.6882 396.019,19.1882 375.5,26.5C 369.104,25.9388 365.437,22.4388 364.5,16C 366.007,9.05902 370.341,5.05902 377.5,4C 383.581,2.29 389.581,0.79 395.5,-0.5 Z M 403.5,61.5 C 416.114,59.8888 424.947,64.8888 430,76.5C 430.667,83.1667 430.667,89.8333 430,96.5C 424.958,109.105 415.792,113.938 402.5,111C 395.572,108.406 391.072,103.573 389,96.5C 384.481,80.4756 389.315,68.8089 403.5,61.5 Z M 387.5,129.5 C 394.732,131.138 402.065,132.472 409.5,133.5C 416.011,132.916 422.345,131.582 428.5,129.5C 440.241,130.289 450.075,134.955 458,143.5C 461.873,149.66 463.207,156.327 462,163.5C 426.996,190.163 391.996,190.163 357,163.5C 355.35,152.632 358.85,143.799 367.5,137C 373.901,133.575 380.567,131.075 387.5,129.5 Z M 116.5,194.5 C 135.283,193.798 147.117,202.465 152,220.5C 155.417,235.677 151.917,248.843 141.5,260C 123.726,271.578 108.226,269.078 95,252.5C 93.0728,249.052 91.7394,245.385 91,241.5C 90.3333,234.5 90.3333,227.5 91,220.5C 94.3482,206.653 102.848,197.986 116.5,194.5 Z M 96.5,282.5 C 112.834,290.453 129.168,290.453 145.5,282.5C 153.116,284.821 160.783,286.988 168.5,289C 185.661,296.152 193.828,308.985 193,327.5C 158.745,358.254 120.245,364.754 77.5,347C 67.3672,341.851 58.2005,335.351 50,327.5C 49.0049,310.324 56.1716,297.824 71.5,290C 79.9973,287.631 88.3306,285.131 96.5,282.5 Z M 403.5,369.5 C 416.114,367.889 424.947,372.889 430,384.5C 430.667,391.167 430.667,397.833 430,404.5C 424.958,417.105 415.792,421.938 402.5,419C 395.572,416.406 391.072,411.573 389,404.5C 384.481,388.476 389.315,376.809 403.5,369.5 Z M 387.5,437.5 C 394.732,439.138 402.065,440.472 409.5,441.5C 416.011,440.916 422.345,439.582 428.5,437.5C 440.273,438.305 450.107,442.972 458,451.5C 461.873,457.66 463.207,464.327 462,471.5C 436.003,492.03 407.503,496.197 376.5,484C 369.406,480.706 362.906,476.54 357,471.5C 355.35,460.632 358.85,451.799 367.5,445C 373.901,441.575 380.567,439.075 387.5,437.5 Z"/></g>
<g><path style="opacity:0.899" fill="#000000" d="M 343.5,25.5 C 352.29,26.7907 355.79,31.7907 354,40.5C 350.723,46.1088 345.89,47.9422 339.5,46C 333.454,41.3316 332.454,35.8316 336.5,29.5C 338.525,27.4356 340.858,26.1023 343.5,25.5 Z"/></g>
<g><path style="opacity:0.888" fill="#000000" d="M 40.5,165.5 C 49.7962,166.298 53.6295,171.298 52,180.5C 48.7231,186.109 43.8897,187.942 37.5,186C 30.8187,180.637 30.1521,174.637 35.5,168C 37.3146,167.243 38.9812,166.41 40.5,165.5 Z"/></g>
<g><path style="opacity:0.89" fill="#000000" d="M 473.5,333.5 C 482.914,335.063 486.414,340.397 484,349.5C 480.702,354.22 476.202,355.72 470.5,354C 464.891,350.723 463.058,345.89 465,339.5C 467.21,336.432 470.043,334.432 473.5,333.5 Z"/></g>
</svg>
