<?xml version="1.0" encoding="UTF-8"?>
<!DOCTYPE svg PUBLIC "-//W3C//DTD SVG 1.1//EN" "http://www.w3.org/Graphics/SVG/1.1/DTD/svg11.dtd">
<svg xmlns="http://www.w3.org/2000/svg" version="1.1" width="512px" height="512px" style="shape-rendering:geometricPrecision; text-rendering:geometricPrecision; image-rendering:optimizeQuality; fill-rule:evenodd; clip-rule:evenodd" xmlns:xlink="http://www.w3.org/1999/xlink">
<g><path style="opacity:0.98" fill="#000000" d="M 443.5,-0.5 C 450.167,-0.5 456.833,-0.5 463.5,-0.5C 489.167,5.83333 505.167,21.8333 511.5,47.5C 511.5,54.5 511.5,61.5 511.5,68.5C 501.072,103.225 477.739,118.725 441.5,115C 436.724,113.625 432.058,112.292 427.5,111C 397.833,140.667 368.167,170.333 338.5,200C 337.833,200.667 337.167,200.667 336.5,200C 329.333,190.167 320.833,181.667 311,174.5C 310.333,173.833 310.333,173.167 311,172.5C 340.667,142.833 370.333,113.167 400,83.5C 389.417,55.4205 395.251,31.2538 417.5,11C 425.438,5.30683 434.104,1.47349 443.5,-0.5 Z"/></g>
<g><path style="opacity:0.972" fill="#000000" d="M -0.5,97.5 C -0.5,90.8333 -0.5,84.1667 -0.5,77.5C 8.17303,48.9757 27.5064,36.1424 57.5,39C 82.692,45.3608 96.0253,61.5274 97.5,87.5C 96.982,91.9159 96.482,96.2492 96,100.5C 128.337,126.674 160.503,153.008 192.5,179.5C 183.36,188.634 175.36,198.634 168.5,209.5C 136.317,183.907 104.317,158.073 72.5,132C 64.5577,134.188 56.391,135.688 48,136.5C 22.7247,134.716 6.55807,121.716 -0.5,97.5 Z"/></g>
<g><path style="opacity:0.984" fill="#000000" d="M 245.5,184.5 C 278.147,181.738 302.647,194.405 319,222.5C 334.568,260.406 326.068,291.572 293.5,316C 257.787,334.298 226.287,328.798 199,299.5C 179.67,270.129 179.67,240.795 199,211.5C 211.389,196.897 226.889,187.897 245.5,184.5 Z"/></g>
<g><path style="opacity:0.974" fill="#000000" d="M 511.5,316.5 C 511.5,323.167 511.5,329.833 511.5,336.5C 504.367,360.51 488.2,373.51 463,375.5C 435.596,373.093 419.263,358.427 414,331.5C 413.612,330.572 412.945,329.905 412,329.5C 388.044,321.46 364.211,313.126 340.5,304.5C 347.106,293.35 351.106,281.35 352.5,268.5C 376.933,276.089 401.267,284.089 425.5,292.5C 445.371,274.877 467.037,272.377 490.5,285C 501.649,292.817 508.649,303.317 511.5,316.5 Z"/></g>
<g><path style="opacity:0.972" fill="#000000" d="M 66.5,511.5 C 57.1667,511.5 47.8333,511.5 38.5,511.5C 18.2989,504.633 5.29893,490.967 -0.5,470.5C -0.5,463.167 -0.5,455.833 -0.5,448.5C 7.21492,422.116 24.8816,407.783 52.5,405.5C 59.9971,406.165 67.3305,407.332 74.5,409C 107.167,376.333 139.833,343.667 172.5,311C 173.167,310.333 173.833,310.333 174.5,311C 182.522,321.348 191.355,330.515 201,338.5C 167.833,371.667 134.667,404.833 101.5,438C 110.338,462.313 105.338,483.313 86.5,501C 80.1823,505.324 73.5156,508.824 66.5,511.5 Z"/></g>
<g><path style="opacity:0.978" fill="#000000" d="M 332.5,511.5 C 324.833,511.5 317.167,511.5 309.5,511.5C 280.187,503.095 264.187,483.595 261.5,453C 262.639,433.561 270.306,417.395 284.5,404.5C 279.033,387.432 273.366,370.432 267.5,353.5C 280.495,351.446 292.662,347.113 304,340.5C 310.384,357.65 316.384,374.984 322,392.5C 353.071,395.572 372.405,412.239 380,442.5C 382.932,478.689 367.098,501.689 332.5,511.5 Z"/></g>
</svg>
