<?xml version="1.0" encoding="UTF-8"?>
<!DOCTYPE svg PUBLIC "-//W3C//DTD SVG 1.1//EN" "http://www.w3.org/Graphics/SVG/1.1/DTD/svg11.dtd">
<svg xmlns="http://www.w3.org/2000/svg" version="1.1" width="512px" height="512px" style="shape-rendering:geometricPrecision; text-rendering:geometricPrecision; image-rendering:optimizeQuality; fill-rule:evenodd; clip-rule:evenodd" xmlns:xlink="http://www.w3.org/1999/xlink">
<g><path style="opacity:0.982" fill="#000000" d="M 149.5,43.5 C 166.77,42.1098 174.103,50.1098 171.5,67.5C 227.5,67.5 283.5,67.5 339.5,67.5C 336.847,49.9916 344.18,42.1583 361.5,44C 370.995,48.9404 374.661,56.7737 372.5,67.5C 394.836,67.3334 417.169,67.5 439.5,68C 470,74.5 488.5,93 495,123.5C 495.667,224.833 495.667,326.167 495,427.5C 488.242,456.591 470.409,474.757 441.5,482C 379.526,483.154 317.526,483.654 255.5,483.5C 195.833,483.333 136.167,483.167 76.5,483C 45.9862,478.824 26.1528,461.991 17,432.5C 15.8442,380.203 15.3442,327.869 15.5,275.5C 15.6667,224.833 15.8333,174.167 16,123.5C 22.5,93 41,74.5 71.5,68C 93.8308,67.5 116.164,67.3334 138.5,67.5C 136.43,56.6577 140.096,48.6577 149.5,43.5 Z M 82.5,99.5 C 101.167,99.5 119.833,99.5 138.5,99.5C 136.677,116.842 144.343,124.676 161.5,123C 170.382,117.717 173.716,109.884 171.5,99.5C 227.5,99.5 283.5,99.5 339.5,99.5C 336.847,117.008 344.18,124.842 361.5,123C 370.995,118.06 374.661,110.226 372.5,99.5C 391.17,99.3334 409.836,99.5001 428.5,100C 446.215,101.265 457.382,110.431 462,127.5C 463.355,142.464 463.855,157.464 463.5,172.5C 324.833,172.5 186.167,172.5 47.5,172.5C 47.3335,160.162 47.5001,147.829 48,135.5C 49.8856,114.117 61.3856,102.117 82.5,99.5 Z M 47.5,205.5 C 186.167,205.5 324.833,205.5 463.5,205.5C 463.667,275.501 463.5,345.501 463,415.5C 461.302,436.864 449.802,448.698 428.5,451C 313.167,451.667 197.833,451.667 82.5,451C 61.1977,448.698 49.6977,436.864 48,415.5C 47.5,345.501 47.3333,275.501 47.5,205.5 Z"/></g>
</svg>
