<?xml version="1.0" encoding="UTF-8"?>
<!DOCTYPE svg PUBLIC "-//W3C//DTD SVG 1.1//EN" "http://www.w3.org/Graphics/SVG/1.1/DTD/svg11.dtd">
<svg xmlns="http://www.w3.org/2000/svg" version="1.1" width="512px" height="512px" style="shape-rendering:geometricPrecision; text-rendering:geometricPrecision; image-rendering:optimizeQuality; fill-rule:evenodd; clip-rule:evenodd" xmlns:xlink="http://www.w3.org/1999/xlink">
<g><path style="opacity:0.946" fill="#000000" d="M 241.5,126.5 C 321.426,124.055 385.926,154.055 435,216.5C 442.42,227.001 449.087,238.001 455,249.5C 457.191,255.958 456.191,261.958 452,267.5C 408.469,342.708 342.969,381.708 255.5,384.5C 176.198,382.442 114.031,349.108 69,284.5C 64.4135,276.996 60.0801,269.329 56,261.5C 54,257.5 54,253.5 56,249.5C 96.0382,175.881 157.872,134.881 241.5,126.5 Z M 247.5,148.5 C 319.565,148.616 377.065,177.282 420,234.5C 424.366,241.369 428.532,248.369 432.5,255.5C 393.489,323.534 334.489,359.201 255.5,362.5C 176.511,359.201 117.511,323.534 78.5,255.5C 115.912,190.277 172.245,154.61 247.5,148.5 Z M 249.5,202.5 C 282.182,202.574 301.682,218.574 308,250.5C 308.048,282.237 292.548,301.404 261.5,308C 233.541,309.112 214.708,296.612 205,270.5C 199.032,234.081 213.865,211.414 249.5,202.5 Z"/></g>
<g><path style="opacity:0.949" fill="#000000" d="M 245.5,180.5 C 282.419,178.199 308.919,193.532 325,226.5C 336.635,259.789 329.802,288.622 304.5,313C 276.681,333.592 247.348,335.926 216.5,320C 186.533,299.455 175.366,271.288 183,235.5C 192.82,204.506 213.653,186.173 245.5,180.5 Z M 249.5,202.5 C 213.865,211.414 199.032,234.081 205,270.5C 214.708,296.612 233.541,309.112 261.5,308C 292.548,301.404 308.048,282.237 308,250.5C 301.682,218.574 282.182,202.574 249.5,202.5 Z"/></g>
</svg>
