<?xml version="1.0" encoding="UTF-8"?>
<!DOCTYPE svg PUBLIC "-//W3C//DTD SVG 1.1//EN" "http://www.w3.org/Graphics/SVG/1.1/DTD/svg11.dtd">
<svg xmlns="http://www.w3.org/2000/svg" version="1.1" width="512px" height="512px" style="shape-rendering:geometricPrecision; text-rendering:geometricPrecision; image-rendering:optimizeQuality; fill-rule:evenodd; clip-rule:evenodd" xmlns:xlink="http://www.w3.org/1999/xlink">
<g><path style="opacity:0.99" fill="#949494" d="M 300.5,-0.5 C 302.167,-0.5 303.833,-0.5 305.5,-0.5C 294.549,31.7559 288.549,64.9226 287.5,99C 286.471,121.857 291.304,143.357 302,163.5C 320.516,187.76 339.516,188.093 359,164.5C 367.237,150.693 374.403,136.36 380.5,121.5C 402.259,146.003 418.092,174.003 428,205.5C 435.298,233.926 435.298,262.26 428,290.5C 430.628,288.874 432.961,286.874 435,284.5C 444,272.833 453,261.167 462,249.5C 467.659,284.693 466.659,319.693 459,354.5C 436.841,429.992 388.341,479.825 313.5,504C 300.857,507.362 288.191,509.862 275.5,511.5C 269.833,511.5 264.167,511.5 258.5,511.5C 310.506,506.002 342.339,477.669 354,426.5C 358.423,384.687 343.757,351.353 310,326.5C 305.232,334.266 299.399,341.099 292.5,347C 288.467,348.04 284.801,347.374 281.5,345C 269.824,330.015 267.324,313.515 274,295.5C 281.722,281.884 290.556,269.051 300.5,257C 247.944,256.855 207.111,278.355 178,321.5C 155.658,361.9 150.658,404.234 163,448.5C 180.629,486.893 210.462,507.893 252.5,511.5C 246.833,511.5 241.167,511.5 235.5,511.5C 166.539,503.115 113.372,469.782 76,411.5C 49.9988,367.494 40.6655,320.16 48,269.5C 51.41,251.526 55.91,233.859 61.5,216.5C 69.4952,227.338 77.3286,238.338 85,249.5C 92.3636,257.198 100.03,264.531 108,271.5C 107.968,220.661 117.302,171.661 136,124.5C 168.459,53.5579 223.293,11.8912 300.5,-0.5 Z"/></g>
<g><path style="opacity:0.986" fill="#949494" d="M 240.5,299.5 C 241.649,299.791 242.316,300.624 242.5,302C 239.338,322.512 243.504,341.345 255,358.5C 270.114,377.491 288.281,381.324 309.5,370C 310.944,369.219 312.277,369.386 313.5,370.5C 331.201,398.782 330.701,426.782 312,454.5C 288.491,481.169 259.991,488.336 226.5,476C 199.3,462.277 185.3,440.11 184.5,409.5C 183.928,378.088 192.762,349.755 211,324.5C 215.833,319.667 220.667,314.833 225.5,310C 230.566,306.478 235.566,302.978 240.5,299.5 Z"/></g>
</svg>
