<?xml version="1.0" encoding="UTF-8"?>
<!DOCTYPE svg PUBLIC "-//W3C//DTD SVG 1.1//EN" "http://www.w3.org/Graphics/SVG/1.1/DTD/svg11.dtd">
<svg xmlns="http://www.w3.org/2000/svg" version="1.1" width="512px" height="512px" style="shape-rendering:geometricPrecision; text-rendering:geometricPrecision; image-rendering:optimizeQuality; fill-rule:evenodd; clip-rule:evenodd" xmlns:xlink="http://www.w3.org/1999/xlink">
<g><path style="opacity:1" fill="#ff421d" d="M 281.5,-0.5 C 283.167,-0.5 284.833,-0.5 286.5,-0.5C 274.059,40.1285 270.892,81.4619 277,123.5C 280.37,142.235 288.037,158.902 300,173.5C 320.358,192.715 342.191,194.548 365.5,179C 377.746,168.333 386.912,155.5 393,140.5C 429.835,187.837 439.168,240.17 421,297.5C 418.509,304.649 415.342,311.482 411.5,318C 422.385,318.778 432.385,316.112 441.5,310C 449.899,304.772 457.232,298.272 463.5,290.5C 466.254,368.487 436.254,430.321 373.5,476C 343.885,495.481 311.551,507.314 276.5,511.5C 272.833,511.5 269.167,511.5 265.5,511.5C 300.189,505.981 325.023,487.314 340,455.5C 354.41,415.875 346.743,381.209 317,351.5C 299.985,372.83 282.985,372.83 266,351.5C 252.348,325.173 253.515,299.507 269.5,274.5C 269,274.167 268.5,273.833 268,273.5C 263.89,274.816 259.724,275.816 255.5,276.5C 255.5,187.167 255.5,97.8333 255.5,8.5C 263.959,4.88569 272.626,1.88569 281.5,-0.5 Z"/></g>
<g><path style="opacity:0.991" fill="#fe6535" d="M 255.5,8.5 C 255.5,97.8333 255.5,187.167 255.5,276.5C 255.5,276.833 255.5,277.167 255.5,277.5C 211.084,292.753 182.584,323.086 170,368.5C 164.34,391.89 163.006,415.556 166,439.5C 177.324,479.33 203.157,503.33 243.5,511.5C 240.5,511.5 237.5,511.5 234.5,511.5C 163.618,501.829 109.785,466.496 73,405.5C 45.9115,355.6 39.5782,303.267 54,248.5C 70.9124,270.415 91.2457,288.415 115,302.5C 111.472,251.312 116.472,200.978 130,151.5C 143.265,105.294 168.098,66.7935 204.5,36C 220.066,24.2162 237.066,15.0496 255.5,8.5 Z"/></g>
<g><path style="opacity:1" fill="#fbbe00" d="M 255.5,277.5 C 255.5,355.5 255.5,433.5 255.5,511.5C 251.5,511.5 247.5,511.5 243.5,511.5C 203.157,503.33 177.324,479.33 166,439.5C 163.006,415.556 164.34,391.89 170,368.5C 182.584,323.086 211.084,292.753 255.5,277.5 Z"/></g>
<g><path style="opacity:1" fill="#fea800" d="M 265.5,511.5 C 262.167,511.5 258.833,511.5 255.5,511.5C 255.5,433.5 255.5,355.5 255.5,277.5C 255.5,277.167 255.5,276.833 255.5,276.5C 259.724,275.816 263.89,274.816 268,273.5C 268.5,273.833 269,274.167 269.5,274.5C 253.515,299.507 252.348,325.173 266,351.5C 282.985,372.83 299.985,372.83 317,351.5C 346.743,381.209 354.41,415.875 340,455.5C 325.023,487.314 300.189,505.981 265.5,511.5 Z"/></g>
</svg>
