<?xml version="1.0" encoding="UTF-8"?>
<!DOCTYPE svg PUBLIC "-//W3C//DTD SVG 1.1//EN" "http://www.w3.org/Graphics/SVG/1.1/DTD/svg11.dtd">
<svg xmlns="http://www.w3.org/2000/svg" version="1.1" width="512px" height="512px" style="shape-rendering:geometricPrecision; text-rendering:geometricPrecision; image-rendering:optimizeQuality; fill-rule:evenodd; clip-rule:evenodd" xmlns:xlink="http://www.w3.org/1999/xlink">
<g><path style="opacity:0.987" fill="#9fc8d2" d="M 68.5,64.5 C 51.4001,79.9666 34.0668,80.3 16.5,65.5C 5.57913,51.5075 4.7458,36.8408 14,21.5C 27.5796,6.45177 43.413,3.61844 61.5,13C 75.9805,24.4073 80.1472,38.9073 74,56.5C 72.3909,59.4068 70.5576,62.0734 68.5,64.5 Z"/></g>
<g><path style="opacity:0.988" fill="#f0c41a" d="M 201.5,58.5 C 195.855,62.1454 191.188,66.8121 187.5,72.5C 189.864,80.6818 190.697,89.0151 190,97.5C 187.487,101.212 183.987,102.378 179.5,101C 173.731,97.699 167.897,94.5323 162,91.5C 155.614,94.276 149.448,97.4427 143.5,101C 136.476,102.473 132.809,99.6398 132.5,92.5C 133.671,85.1614 134.505,77.828 135,70.5C 133.549,68.5359 131.716,67.2026 129.5,66.5C 125.836,62.6678 122.336,58.6678 119,54.5C 117.431,49.3747 118.931,45.5414 123.5,43C 130.911,42.0369 138.244,40.7036 145.5,39C 148.723,31.2182 152.723,23.8848 157.5,17C 162.256,15.5563 166.089,16.7229 169,20.5C 171.56,26.6209 174.394,32.6209 177.5,38.5C 184.674,40.5308 192.007,42.0308 199.5,43C 202.934,44.5293 204.6,47.196 204.5,51C 204.452,53.922 203.452,56.422 201.5,58.5 Z"/></g>
<g><path style="opacity:0.997" fill="#f8e9af" d="M 201.5,58.5 C 224.307,58.6004 246.973,60.4337 269.5,64C 296.532,69.5079 323.532,75.1746 350.5,81C 373.972,85.2806 397.639,87.4472 421.5,87.5C 441.198,86.8869 460.865,86.0535 480.5,85C 492.863,87.0948 500.363,94.2615 503,106.5C 503.667,205.167 503.667,303.833 503,402.5C 498.593,417.549 488.426,425.049 472.5,425C 458.193,426.343 443.86,427.176 429.5,427.5C 434.163,422.669 438.663,417.669 443,412.5C 444.268,407.78 442.768,404.28 438.5,402C 431.119,400.924 423.785,399.59 416.5,398C 413.277,390.218 409.277,382.885 404.5,376C 400.409,374.773 396.909,375.606 394,378.5C 391.022,385.104 387.856,391.604 384.5,398C 378.211,399.245 371.878,400.245 365.5,401C 357.414,403.429 355.581,408.262 360,415.5C 363.038,418.369 365.871,421.369 368.5,424.5C 330.478,417.863 292.478,411.029 254.5,404C 217.404,400.133 180.404,400.799 143.5,406C 119.246,409.745 97.2456,418.745 77.5,433C 74.2678,436.062 71.2678,439.229 68.5,442.5C 67.1698,327.961 67.1698,213.294 68.5,98.5C 85.5223,81.8192 105.856,71.1526 129.5,66.5C 131.716,67.2026 133.549,68.5359 135,70.5C 134.505,77.828 133.671,85.1614 132.5,92.5C 132.809,99.6398 136.476,102.473 143.5,101C 149.448,97.4427 155.614,94.276 162,91.5C 167.897,94.5323 173.731,97.699 179.5,101C 183.987,102.378 187.487,101.212 190,97.5C 190.697,89.0151 189.864,80.6818 187.5,72.5C 191.188,66.8121 195.855,62.1454 201.5,58.5 Z"/></g>
<g><path style="opacity:0.994" fill="#a55a47" d="M 68.5,64.5 C 68.5,75.8333 68.5,87.1667 68.5,98.5C 67.1698,213.294 67.1698,327.961 68.5,442.5C 68.962,461.568 68.462,480.568 67,499.5C 65.786,501.049 64.286,502.215 62.5,503C 49.1667,503.667 35.8333,503.667 22.5,503C 19.7683,502.602 17.935,501.102 17,498.5C 16.5,354.167 16.3333,209.834 16.5,65.5C 34.0668,80.3 51.4001,79.9666 68.5,64.5 Z"/></g>
<g><path style="opacity:1" fill="#25ae5f" d="M 258.5,127.5 C 313.622,124.624 352.788,147.958 376,197.5C 392.111,247.223 380.945,289.723 342.5,325C 302.918,353.825 261.252,357.158 217.5,335C 173.421,306.662 155.588,266.495 164,214.5C 177.829,166.166 209.329,137.166 258.5,127.5 Z"/></g>
<g><path style="opacity:1" fill="#e9efee" d="M 311.5,187.5 C 322.788,187.415 325.955,192.415 321,202.5C 298.31,230.356 275.81,258.356 253.5,286.5C 249.264,290.21 244.931,290.376 240.5,287C 233.968,280.802 227.801,274.302 222,267.5C 220.674,259.162 224.174,255.329 232.5,256C 236.8,259.298 240.8,262.965 244.5,267C 245.5,267.667 246.5,267.667 247.5,267C 268.667,240.336 290,213.836 311.5,187.5 Z"/></g>
<g><path style="opacity:0.993" fill="#f0c41a" d="M 429.5,427.5 C 428.061,428.988 427.395,430.822 427.5,433C 428.36,439.522 429.36,446.022 430.5,452.5C 429.303,459.273 425.303,461.773 418.5,460C 412.731,456.699 406.897,453.532 401,450.5C 393.725,454.14 386.392,457.474 379,460.5C 374.69,460.68 372.024,458.68 371,454.5C 371.353,446.55 372.519,438.717 374.5,431C 372.294,428.963 370.294,426.797 368.5,424.5C 365.871,421.369 363.038,418.369 360,415.5C 355.581,408.262 357.414,403.429 365.5,401C 371.878,400.245 378.211,399.245 384.5,398C 387.856,391.604 391.022,385.104 394,378.5C 396.909,375.606 400.409,374.773 404.5,376C 409.277,382.885 413.277,390.218 416.5,398C 423.785,399.59 431.119,400.924 438.5,402C 442.768,404.28 444.268,407.78 443,412.5C 438.663,417.669 434.163,422.669 429.5,427.5 Z"/></g>
</svg>
