<?xml version="1.0" encoding="UTF-8"?>
<!DOCTYPE svg PUBLIC "-//W3C//DTD SVG 1.1//EN" "http://www.w3.org/Graphics/SVG/1.1/DTD/svg11.dtd">
<svg xmlns="http://www.w3.org/2000/svg" version="1.1" width="512px" height="512px" style="shape-rendering:geometricPrecision; text-rendering:geometricPrecision; image-rendering:optimizeQuality; fill-rule:evenodd; clip-rule:evenodd" xmlns:xlink="http://www.w3.org/1999/xlink">
<g><path style="opacity:0.979" fill="#000000" d="M 93.5,11.5 C 115.75,11.8745 133.583,20.8745 147,38.5C 160.621,57.9764 166.955,79.6431 166,103.5C 164.108,107.058 161.275,109.558 157.5,111C 123.936,117.914 90.2693,123.914 56.5,129C 52.4267,127.928 49.5933,125.428 48,121.5C 40.7582,100.422 39.7582,79.0889 45,57.5C 52.0816,32.2438 68.2483,16.9105 93.5,11.5 Z"/></g>
<g><path style="opacity:0.987" fill="#000000" d="M 158.5,132.5 C 164.001,131.64 168.834,132.973 173,136.5C 182.729,156.291 192.729,175.958 203,195.5C 212.48,221.01 215.814,247.343 213,274.5C 211.156,302.014 200.323,325.181 180.5,344C 162.832,356.002 144.165,357.669 124.5,349C 108.808,340.31 95.9748,328.476 86,313.5C 68.48,286.095 59.3134,256.095 58.5,223.5C 60.3543,203.232 59.6877,183.066 56.5,163C 56.8814,156.962 59.8814,152.962 65.5,151C 96.6682,145 127.668,138.833 158.5,132.5 Z"/></g>
<g><path style="opacity:0.98" fill="#000000" d="M 409.5,156.5 C 436.008,157.171 454.175,169.838 464,194.5C 471.984,219.492 470.984,244.159 461,268.5C 456.983,275.138 451.15,277.304 443.5,275C 411.309,267.619 379.309,259.619 347.5,251C 343.809,246.827 342.642,241.993 344,236.5C 346.697,206.922 359.863,183.422 383.5,166C 391.602,160.985 400.269,157.819 409.5,156.5 Z"/></g>
<g><path style="opacity:0.987" fill="#000000" d="M 342.5,274.5 C 375.648,281.203 408.648,288.703 441.5,297C 448.188,298.695 451.522,303.028 451.5,310C 451.213,312.174 450.88,314.341 450.5,316.5C 462.094,370.031 452.261,419.031 421,463.5C 410.373,477.225 397.206,487.725 381.5,495C 356.25,503.896 335.083,498.063 318,477.5C 305.968,459.74 299.302,440.073 298,418.5C 296.038,391.566 300.038,365.566 310,340.5C 320.221,322.061 328.221,302.728 334,282.5C 335.773,278.56 338.606,275.893 342.5,274.5 Z"/></g>
</svg>
