<?xml version="1.0" encoding="UTF-8"?>
<!DOCTYPE svg PUBLIC "-//W3C//DTD SVG 1.1//EN" "http://www.w3.org/Graphics/SVG/1.1/DTD/svg11.dtd">
<svg xmlns="http://www.w3.org/2000/svg" version="1.1" width="512px" height="512px" style="shape-rendering:geometricPrecision; text-rendering:geometricPrecision; image-rendering:optimizeQuality; fill-rule:evenodd; clip-rule:evenodd" xmlns:xlink="http://www.w3.org/1999/xlink">
<g><path style="opacity:0.947" fill="#9c22ff" d="M 201.5,19.5 C 199.167,22.1667 196.833,24.8333 194.5,27.5C 176.463,27.1 158.463,27.6 140.5,29C 122.178,34.7925 114.345,47.2925 117,66.5C 119.364,76.6867 125.197,84.02 134.5,88.5C 131.573,89.7573 129.239,91.7573 127.5,94.5C 108.682,82.219 102.849,65.219 110,43.5C 115.592,30.9064 125.092,23.0731 138.5,20C 159.497,19.5 180.497,19.3334 201.5,19.5 Z"/></g>
<g><path style="opacity:0.944" fill="#8e2dff" d="M 201.5,19.5 C 221.169,19.3334 240.836,19.5 260.5,20C 267.565,21.3636 273.565,24.5303 278.5,29.5C 275.5,30.5 273.5,32.5 272.5,35.5C 266.347,30.7628 259.347,28.2628 251.5,28C 232.503,27.5001 213.503,27.3334 194.5,27.5C 196.833,24.8333 199.167,22.1667 201.5,19.5 Z"/></g>
<g><path style="opacity:0.98" fill="#8137ff" d="M 278.5,29.5 C 280.479,30.8121 282.145,32.4788 283.5,34.5C 303.155,35.4996 322.822,35.833 342.5,35.5C 336.167,42.1667 329.833,48.8333 323.5,55.5C 316.053,55.0714 308.719,55.5714 301.5,57C 300.167,58.6667 300.167,60.3333 301.5,62C 305.7,63.3674 310.033,63.8674 314.5,63.5C 312.167,66.1667 309.833,68.8333 307.5,71.5C 302.703,71.1211 298.036,71.6211 293.5,73C 291.793,77.4806 293.459,79.6473 298.5,79.5C 296.167,82.1667 293.833,84.8333 291.5,87.5C 286.814,86.984 284.481,88.984 284.5,93.5C 274.167,104.5 263.5,115.167 252.5,125.5C 249.945,122.75 247.612,119.75 245.5,116.5C 231.634,116.333 220.301,111 211.5,100.5C 210.311,99.5713 208.978,99.238 207.5,99.5C 209.833,96.8333 212.167,94.1667 214.5,91.5C 229.207,91.8729 243.873,91.3729 258.5,90C 278.392,83.0583 285.892,69.225 281,48.5C 278.731,43.7436 275.897,39.4102 272.5,35.5C 273.5,32.5 275.5,30.5 278.5,29.5 Z"/></g>
<g><path style="opacity:0.996" fill="#9824fe" d="M 132.5,39.5 C 150.503,39.3334 168.503,39.5001 186.5,40C 187.833,42.3333 187.833,44.6667 186.5,47C 168.5,47.6667 150.5,47.6667 132.5,47C 131.221,44.5024 131.221,42.0024 132.5,39.5 Z"/></g>
<g><path style="opacity:1" fill="#8d2efe" d="M 196.5,39.5 C 219.836,39.3334 243.169,39.5 266.5,40C 267.833,42.3333 267.833,44.6667 266.5,47C 243.167,47.6667 219.833,47.6667 196.5,47C 195.221,44.5024 195.221,42.0024 196.5,39.5 Z"/></g>
<g><path style="opacity:0.985" fill="#7640ff" d="M 342.5,35.5 C 362.52,34.2103 376.854,42.5437 385.5,60.5C 374.775,71.2221 364.442,82.2221 354.5,93.5C 355.035,90.7615 354.035,88.9282 351.5,88C 331.503,87.5 311.503,87.3334 291.5,87.5C 293.833,84.8333 296.167,82.1667 298.5,79.5C 306.279,79.9321 313.946,79.4321 321.5,78C 323.14,75.2242 322.473,73.2242 319.5,72C 315.514,71.5012 311.514,71.3345 307.5,71.5C 309.833,68.8333 312.167,66.1667 314.5,63.5C 327.599,63.962 340.599,63.462 353.5,62C 355.14,59.2242 354.473,57.2242 351.5,56C 342.173,55.5002 332.839,55.3335 323.5,55.5C 329.833,48.8333 336.167,42.1667 342.5,35.5 Z M 335.5,71.5 C 340.844,71.334 346.177,71.5006 351.5,72C 355.5,74.3333 355.5,76.6667 351.5,79C 346.167,79.6667 340.833,79.6667 335.5,79C 331.581,76.5069 331.581,74.0069 335.5,71.5 Z"/></g>
<g><path style="opacity:1" fill="#9329fe" d="M 132.5,55.5 C 161.169,55.3334 189.835,55.5 218.5,56C 219.833,58.3333 219.833,60.6667 218.5,63C 189.833,63.6667 161.167,63.6667 132.5,63C 131.221,60.5024 131.221,58.0024 132.5,55.5 Z"/></g>
<g><path style="opacity:0.968" fill="#8831fe" d="M 228.5,55.5 C 241.171,55.3334 253.838,55.5001 266.5,56C 267.833,58.3333 267.833,60.6667 266.5,63C 253.833,63.6667 241.167,63.6667 228.5,63C 227.221,60.5024 227.221,58.0024 228.5,55.5 Z"/></g>
<g><path style="opacity:0.981" fill="#6f45ff" d="M 385.5,60.5 C 391.867,81.9088 385.867,98.7422 367.5,111C 364.052,112.927 360.385,114.261 356.5,115C 336.836,115.5 317.169,115.667 297.5,115.5C 303.833,108.833 310.167,102.167 316.5,95.5C 328.171,95.6665 339.838,95.4999 351.5,95C 352.527,94.4867 353.527,93.9867 354.5,93.5C 364.442,82.2221 374.775,71.2221 385.5,60.5 Z"/></g>
<g><path style="opacity:0.977" fill="#9427fe" d="M 132.5,71.5 C 142.506,71.3335 152.506,71.5002 162.5,72C 163.591,74.0639 163.758,76.2305 163,78.5C 152.91,79.652 142.744,79.8186 132.5,79C 131.221,76.5024 131.221,74.0024 132.5,71.5 Z"/></g>
<g><path style="opacity:0.995" fill="#8831fe" d="M 172.5,71.5 C 203.835,71.3334 235.168,71.5 266.5,72C 267.833,74.3333 267.833,76.6667 266.5,79C 235.167,79.6667 203.833,79.6667 172.5,79C 171.221,76.5024 171.221,74.0024 172.5,71.5 Z"/></g>
<g><path style="opacity:0.952" fill="#8d2dfe" d="M 134.5,88.5 C 143.671,90.7463 153.005,91.913 162.5,92C 163.315,99.0867 163.815,106.253 164,113.5C 169.621,106.423 175.121,99.2568 180.5,92C 191.828,91.5001 203.162,91.3335 214.5,91.5C 212.167,94.1667 209.833,96.8333 207.5,99.5C 200.137,99.1694 192.803,99.5027 185.5,100.5C 178.141,110.026 170.974,119.692 164,129.5C 161.582,131.68 158.916,132.013 156,130.5C 155.5,120.172 155.334,109.839 155.5,99.5C 149.824,99.6661 144.157,99.4994 138.5,99C 134.526,98.0055 130.86,96.5055 127.5,94.5C 129.239,91.7573 131.573,89.7573 134.5,88.5 Z"/></g>
<g><path style="opacity:0.99" fill="#793dff" d="M 284.5,93.5 C 285.473,93.9867 286.473,94.4867 287.5,95C 297.161,95.4998 306.828,95.6665 316.5,95.5C 310.167,102.167 303.833,108.833 297.5,115.5C 290.167,115.5 282.833,115.5 275.5,115.5C 275.82,126.082 275.487,136.582 274.5,147C 272.5,147.667 270.5,147.667 268.5,147C 263.036,139.893 257.702,132.726 252.5,125.5C 263.5,115.167 274.167,104.5 284.5,93.5 Z"/></g>
<g><path style="opacity:0.978" fill="#912aff" d="M 138.5,126.5 C 137.448,126.351 136.448,126.517 135.5,127C 107.914,154.084 80.9144,181.584 54.5,209.5C 52.2542,207.351 50.7542,204.684 50,201.5C 49.2282,196.096 49.5615,190.762 51,185.5C 64.017,166.146 78.1837,147.646 93.5,130C 97.4432,127.196 101.777,125.196 106.5,124C 115.167,123.333 123.833,123.333 132.5,124C 134.723,124.566 136.723,125.4 138.5,126.5 Z"/></g>
<g><path style="opacity:0.975" fill="#6d47ff" d="M 352.5,133.5 C 352.631,134.239 352.464,134.906 352,135.5C 341.298,146.035 330.798,156.702 320.5,167.5C 317.643,164.454 315.81,160.787 315,156.5C 310.333,158.5 307,161.833 305,166.5C 304.167,178.181 304.334,189.848 305.5,201.5C 308.408,203.122 311.408,204.456 314.5,205.5C 312.473,208.194 310.139,210.527 307.5,212.5C 295.859,207.348 284.193,202.181 272.5,197C 270.433,196.464 268.599,196.964 267,198.5C 261.667,209.167 256.333,219.833 251,230.5C 250.591,232.695 251.091,234.695 252.5,236.5C 249.907,237.754 247.573,239.42 245.5,241.5C 243.821,240 242.488,238.167 241.5,236C 236.845,235.501 232.179,235.334 227.5,235.5C 227.5,254.833 227.5,274.167 227.5,293.5C 224.833,295.833 222.167,298.167 219.5,300.5C 219.5,264.5 219.5,228.5 219.5,192.5C 222.167,190.167 224.833,187.833 227.5,185.5C 227.5,199.5 227.5,213.5 227.5,227.5C 232.544,227.827 237.544,227.494 242.5,226.5C 248.197,214.269 254.53,202.436 261.5,191C 266.906,187.149 272.573,186.649 278.5,189.5C 279.086,177.792 279.92,166.126 281,154.5C 288.285,134.36 302.618,124.027 324,123.5C 334.961,122.985 344.461,126.319 352.5,133.5 Z"/></g>
<g><path style="opacity:0.985" fill="#8c2fff" d="M 138.5,126.5 C 153.867,133.56 160.7,145.56 159,162.5C 156.765,164.202 154.265,165.202 151.5,165.5C 151.5,173.167 151.5,180.833 151.5,188.5C 148.833,190.833 146.167,193.167 143.5,195.5C 143.5,186.167 143.5,176.833 143.5,167.5C 138.122,167.439 132.788,167.272 127.5,167C 125.519,172.631 122.519,177.631 118.5,182C 116.833,182.667 115.167,182.667 113.5,182C 111.225,179.052 108.391,176.886 105,175.5C 98.1759,177.148 96.1759,181.148 99,187.5C 99.9025,188.701 101.069,189.535 102.5,190C 105.254,190.272 107.921,190.772 110.5,191.5C 101.5,200.833 92.5,210.167 83.5,219.5C 74.0285,220.948 65.3618,219.115 57.5,214C 55.8588,212.871 54.8588,211.371 54.5,209.5C 80.9144,181.584 107.914,154.084 135.5,127C 136.448,126.517 137.448,126.351 138.5,126.5 Z"/></g>
<g><path style="opacity:0.979" fill="#664cff" d="M 352.5,133.5 C 359.407,139.084 364.407,146.084 367.5,154.5C 366.761,154.369 366.094,154.536 365.5,155C 358.572,161.423 352.238,168.256 346.5,175.5C 342.268,170.695 337.935,170.528 333.5,175C 327.402,175.616 323.069,173.116 320.5,167.5C 330.798,156.702 341.298,146.035 352,135.5C 352.464,134.906 352.631,134.239 352.5,133.5 Z"/></g>
<g><path style="opacity:0.98" fill="#6051ff" d="M 367.5,154.5 C 370.558,162.283 373.892,169.95 377.5,177.5C 367.535,186.964 357.702,196.631 348,206.5C 347.802,208.382 347.302,210.048 346.5,211.5C 346.665,208.15 346.498,204.817 346,201.5C 344.333,200.167 342.667,200.167 341,201.5C 339.74,208.394 339.074,215.394 339,222.5C 338.196,223.804 337.029,224.471 335.5,224.5C 325.914,221.039 316.58,217.039 307.5,212.5C 310.139,210.527 312.473,208.194 314.5,205.5C 319.555,207.634 324.555,209.967 329.5,212.5C 330.268,207.818 331.101,203.151 332,198.5C 332.615,196.884 333.615,195.551 335,194.5C 335.333,192.5 335.667,190.5 336,188.5C 338.905,187.044 341.905,185.711 345,184.5C 346.289,181.649 346.789,178.649 346.5,175.5C 352.238,168.256 358.572,161.423 365.5,155C 366.094,154.536 366.761,154.369 367.5,154.5 Z"/></g>
<g><path style="opacity:0.993" fill="#5a56ff" d="M 377.5,177.5 C 381.894,184.575 385.894,191.909 389.5,199.5C 375.535,212.965 361.701,226.631 348,240.5C 347.825,235.981 347.325,231.647 346.5,227.5C 346.5,222.167 346.5,216.833 346.5,211.5C 347.302,210.048 347.802,208.382 348,206.5C 357.702,196.631 367.535,186.964 377.5,177.5 Z"/></g>
<g><path style="opacity:0.981" fill="#8038ff" d="M 227.5,185.5 C 224.833,187.833 222.167,190.167 219.5,192.5C 219.665,189.482 219.498,186.482 219,183.5C 218.5,181.667 217.333,180.5 215.5,180C 201.431,179.053 187.431,179.386 173.5,181C 172.809,182.067 172.309,183.234 172,184.5C 171.667,196.833 171.333,209.167 171,221.5C 168.936,222.591 166.769,222.758 164.5,222C 160.833,217.667 157.167,213.333 153.5,209C 150.153,207.794 147.82,208.794 146.5,212C 152.666,220.328 158.999,228.495 165.5,236.5C 162.757,238.239 160.757,240.573 159.5,243.5C 152.519,234.903 145.519,226.237 138.5,217.5C 136.271,218.577 133.937,219.244 131.5,219.5C 131.183,222.572 131.516,225.572 132.5,228.5C 136.312,229.907 139.978,231.574 143.5,233.5C 118.419,260.082 92.7524,286.249 66.5,312C 65.9056,312.464 65.2389,312.631 64.5,312.5C 66.6919,293.988 69.8586,275.654 74,257.5C 79.4234,243.743 89.0901,234.409 103,229.5C 103.498,226.183 103.665,222.85 103.5,219.5C 96.8333,219.5 90.1667,219.5 83.5,219.5C 92.5,210.167 101.5,200.833 110.5,191.5C 111.495,203.322 111.828,215.322 111.5,227.5C 115.5,227.5 119.5,227.5 123.5,227.5C 123.334,222.489 123.501,217.489 124,212.5C 134.809,211.512 141.309,205.845 143.5,195.5C 146.167,193.167 148.833,190.833 151.5,188.5C 151.5,192.167 151.5,195.833 151.5,199.5C 156.212,199.773 160.045,201.773 163,205.5C 163.333,196.833 163.667,188.167 164,179.5C 165.167,175.667 167.667,173.167 171.5,172C 187.833,171.333 204.167,171.333 220.5,172C 226.131,174.761 228.464,179.261 227.5,185.5 Z"/></g>
<g><path style="opacity:0.992" fill="#535bff" d="M 389.5,199.5 C 396.023,208.688 402.69,217.855 409.5,227C 417.493,227.5 425.493,227.666 433.5,227.5C 431.372,230.13 429.039,232.63 426.5,235C 422.644,235.177 418.977,235.677 415.5,236.5C 395.482,236.745 375.482,236.412 355.5,235.5C 355.5,246.167 355.5,256.833 355.5,267.5C 352.87,269.628 350.37,271.961 348,274.5C 347.819,277.695 347.319,280.695 346.5,283.5C 346.5,264.833 346.5,246.167 346.5,227.5C 347.325,231.647 347.825,235.981 348,240.5C 361.701,226.631 375.535,212.965 389.5,199.5 Z"/></g>
<g><path style="opacity:0.93" fill="#4666ff" d="M 433.5,227.5 C 453.914,229.642 464.914,240.976 466.5,261.5C 465.883,261.389 465.383,261.056 465,260.5C 462.297,263.371 459.464,266.038 456.5,268.5C 458.997,252.659 452.664,242.159 437.5,237C 430.174,236.5 422.841,236.334 415.5,236.5C 418.977,235.677 422.644,235.177 426.5,235C 429.039,232.63 431.372,230.13 433.5,227.5 Z"/></g>
<g><path style="opacity:0.994" fill="#793dff" d="M 143.5,233.5 C 151.576,237.908 157.576,244.242 161.5,252.5C 126.917,285.582 92.7505,319.248 59,353.5C 58.6012,353.272 58.4346,352.938 58.5,352.5C 60.0385,339.062 62.0385,325.729 64.5,312.5C 65.2389,312.631 65.9056,312.464 66.5,312C 92.7524,286.249 118.419,260.082 143.5,233.5 Z"/></g>
<g><path style="opacity:0.995" fill="#7243ff" d="M 165.5,236.5 C 167.5,238.671 169.334,241.004 171,243.5C 171.5,265.497 171.667,287.497 171.5,309.5C 167.167,313.5 162.833,317.5 158.5,321.5C 157.26,318.976 156.093,316.309 155,313.5C 140.592,318.859 126.092,324.025 111.5,329C 110.587,330.414 110.587,331.914 111.5,333.5C 92.0347,352.465 72.7014,371.632 53.5,391C 52.9056,391.464 52.2389,391.631 51.5,391.5C 53.7395,378.389 56.0728,365.389 58.5,352.5C 58.4346,352.938 58.6012,353.272 59,353.5C 92.7505,319.248 126.917,285.582 161.5,252.5C 162.117,252.611 162.617,252.944 163,253.5C 163.604,249.585 162.437,246.251 159.5,243.5C 160.757,240.573 162.757,238.239 165.5,236.5 Z"/></g>
<g><path style="opacity:0.903" fill="#5d53ff" d="M 252.5,236.5 C 268.201,243.434 283.701,250.768 299,258.5C 299.5,268.494 299.666,278.494 299.5,288.5C 297.233,291.271 294.733,293.938 292,296.5C 291.802,298.382 291.302,300.048 290.5,301.5C 290.832,288.816 290.499,276.149 289.5,263.5C 275.38,257.274 261.38,250.774 247.5,244C 246.619,243.292 245.953,242.458 245.5,241.5C 247.573,239.42 249.907,237.754 252.5,236.5 Z"/></g>
<g><path style="opacity:0.939" fill="#3b6fff" d="M 466.5,261.5 C 465.678,269.467 463.344,276.967 459.5,284C 461.765,285.758 463.432,287.925 464.5,290.5C 455.888,300.78 446.555,310.447 436.5,319.5C 442.792,302.278 449.459,285.278 456.5,268.5C 459.464,266.038 462.297,263.371 465,260.5C 465.383,261.056 465.883,261.389 466.5,261.5 Z"/></g>
<g><path style="opacity:0.923" fill="#4765ff" d="M 382.5,312.5 C 377.5,317.167 372.5,321.833 367.5,326.5C 375.872,305.885 384.539,285.385 393.5,265C 397.74,263.461 400.407,264.794 401.5,269C 395.528,283.765 389.195,298.265 382.5,312.5 Z"/></g>
<g><path style="opacity:0.967" fill="#3573ff" d="M 464.5,290.5 C 470.169,297.827 473.502,306.16 474.5,315.5C 464.887,326.781 454.554,337.447 443.5,347.5C 443.666,340.492 443.5,333.492 443,326.5C 438.296,339.468 433.129,352.134 427.5,364.5C 423.202,368.296 419.036,372.296 415,376.5C 414.601,376.272 414.435,375.938 414.5,375.5C 414.724,373.213 415.391,371.047 416.5,369C 410.489,364.993 404.156,361.493 397.5,358.5C 400.139,356.527 402.473,354.194 404.5,351.5C 409.718,354.026 414.885,356.693 420,359.5C 425.277,345.963 430.777,332.63 436.5,319.5C 446.555,310.447 455.888,300.78 464.5,290.5 Z"/></g>
<g><path style="opacity:0.922" fill="#5c54ff" d="M 245.5,344.5 C 241.897,346.763 238.564,349.43 235.5,352.5C 240.029,323.493 245.362,294.659 251.5,266C 255.805,263.655 258.471,264.821 259.5,269.5C 254.938,294.54 250.272,319.54 245.5,344.5 Z"/></g>
<g><path style="opacity:1" fill="#4960ff" d="M 355.5,267.5 C 355.467,292.334 355.8,316.667 356.5,340.5C 355.883,340.389 355.383,340.056 355,339.5C 352.63,342.039 350.13,344.372 347.5,346.5C 346.729,325.398 346.396,304.398 346.5,283.5C 347.319,280.695 347.819,277.695 348,274.5C 350.37,271.961 352.87,269.628 355.5,267.5 Z"/></g>
<g><path style="opacity:0.991" fill="#654dff" d="M 171.5,309.5 C 171.827,332.742 171.494,355.908 170.5,379C 168.231,379.758 166.064,379.591 164,378.5C 163.667,365.167 163.333,351.833 163,338.5C 161.185,332.894 159.685,327.227 158.5,321.5C 162.833,317.5 167.167,313.5 171.5,309.5 Z"/></g>
<g><path style="opacity:0.989" fill="#2d79ff" d="M 474.5,315.5 C 478.381,339.414 471.215,359.414 453,375.5C 452.5,383.493 452.334,391.493 452.5,399.5C 451.151,404.545 448.151,408.545 443.5,411.5C 443.5,390.167 443.5,368.833 443.5,347.5C 454.554,337.447 464.887,326.781 474.5,315.5 Z"/></g>
<g><path style="opacity:0.913" fill="#505eff" d="M 299.5,288.5 C 299.5,313.167 299.5,337.833 299.5,362.5C 296.87,364.628 294.37,366.961 292,369.5C 291.617,368.944 291.117,368.611 290.5,368.5C 290.5,346.167 290.5,323.833 290.5,301.5C 291.302,300.048 291.802,298.382 292,296.5C 294.733,293.938 297.233,291.271 299.5,288.5 Z"/></g>
<g><path style="opacity:1" fill="#5c54ff" d="M 227.5,293.5 C 226.86,316.397 227.527,339.064 229.5,361.5C 228.448,361.351 227.448,361.517 226.5,362C 224.297,364.372 221.963,366.539 219.5,368.5C 219.5,345.833 219.5,323.167 219.5,300.5C 222.167,298.167 224.833,295.833 227.5,293.5 Z"/></g>
<g><path style="opacity:0.99" fill="#6d47ff" d="M 111.5,333.5 C 114.989,345.123 118.322,356.789 121.5,368.5C 120.883,368.389 120.383,368.056 120,367.5C 94.632,393.035 69.132,418.368 43.5,443.5C 46.5982,426.243 49.2649,408.91 51.5,391.5C 52.2389,391.631 52.9056,391.464 53.5,391C 72.7014,371.632 92.0347,352.465 111.5,333.5 Z"/></g>
<g><path style="opacity:0.968" fill="#535cff" d="M 245.5,344.5 C 241.667,365.159 238.167,385.826 235,406.5C 241.385,405.145 247.885,404.478 254.5,404.5C 255.239,404.369 255.906,404.536 256.5,405C 253.629,407.703 250.962,410.536 248.5,413.5C 240.891,414.92 233.225,415.42 225.5,415C 224.884,413.6 224.551,412.1 224.5,410.5C 225.446,405.504 225.946,400.504 226,395.5C 216.256,423.545 196.423,437.045 166.5,436C 170.293,450.762 178.959,461.595 192.5,468.5C 190.761,471.243 188.427,473.243 185.5,474.5C 170.527,466.581 161.36,454.248 158,437.5C 155.419,455.492 152.252,473.325 148.5,491C 131.503,491.5 114.503,491.667 97.5,491.5C 118.632,469.868 139.965,448.368 161.5,427C 162.448,426.517 163.448,426.351 164.5,426.5C 191.902,428.583 209.735,416.583 218,390.5C 218.942,383.194 219.442,375.86 219.5,368.5C 221.963,366.539 224.297,364.372 226.5,362C 227.448,361.517 228.448,361.351 229.5,361.5C 230.833,361.5 232.167,361.5 233.5,361.5C 233.676,358.273 234.343,355.273 235.5,352.5C 238.564,349.43 241.897,346.763 245.5,344.5 Z M 227.5,369.5 C 228.708,370.234 230.041,370.567 231.5,370.5C 230.529,376.856 229.362,383.189 228,389.5C 227.5,382.842 227.334,376.175 227.5,369.5 Z"/></g>
<g><path style="opacity:0.947" fill="#406bff" d="M 382.5,312.5 C 379.85,320.613 376.517,328.446 372.5,336C 383.071,341.453 393.738,346.619 404.5,351.5C 402.473,354.194 400.139,356.527 397.5,358.5C 388.282,353.974 379.115,349.308 370,344.5C 366.008,353.132 362.008,361.799 358,370.5C 354.393,373.269 351.06,372.936 348,369.5C 347.5,361.841 347.334,354.174 347.5,346.5C 350.13,344.372 352.63,342.039 355,339.5C 355.383,340.056 355.883,340.389 356.5,340.5C 356.335,343.518 356.502,346.518 357,349.5C 360.426,341.689 363.926,334.023 367.5,326.5C 372.5,321.833 377.5,317.167 382.5,312.5 Z"/></g>
<g><path style="opacity:0.992" fill="#664cff" d="M 121.5,368.5 C 124.233,376.367 126.566,384.367 128.5,392.5C 98.1667,422.5 67.8333,452.5 37.5,482.5C 39.823,469.561 41.823,456.561 43.5,443.5C 69.132,418.368 94.632,393.035 120,367.5C 120.383,368.056 120.883,368.389 121.5,368.5 Z"/></g>
<g><path style="opacity:0.924" fill="#2f77ff" d="M 427.5,364.5 C 425.204,372.593 422.204,380.426 418.5,388C 422.993,389.994 426.326,393.16 428.5,397.5C 425.615,398.382 422.948,399.716 420.5,401.5C 419.481,399.493 417.815,398.16 415.5,397.5C 402.302,423.673 380.968,436.673 351.5,436.5C 356.939,435.074 360.939,431.741 363.5,426.5C 379.765,423.953 392.599,415.953 402,402.5C 406.471,393.56 410.638,384.56 414.5,375.5C 414.435,375.938 414.601,376.272 415,376.5C 419.036,372.296 423.202,368.296 427.5,364.5 Z"/></g>
<g><path style="opacity:0.947" fill="#4567ff" d="M 299.5,362.5 C 298.27,380.81 303.603,396.81 315.5,410.5C 313.167,412.167 311.167,414.167 309.5,416.5C 306.666,414.498 304.333,411.998 302.5,409C 284.483,410.02 266.483,411.52 248.5,413.5C 250.962,410.536 253.629,407.703 256.5,405C 255.906,404.536 255.239,404.369 254.5,404.5C 268.329,402.555 282.329,400.888 296.5,399.5C 292.709,389.544 290.709,379.211 290.5,368.5C 291.117,368.611 291.617,368.944 292,369.5C 294.37,366.961 296.87,364.628 299.5,362.5 Z"/></g>
<g><path style="opacity:0.996" fill="#6051ff" d="M 128.5,392.5 C 131.396,401.301 136.063,408.967 142.5,415.5C 141.504,415.586 140.671,415.252 140,414.5C 114.298,440.035 88.7984,465.701 63.5,491.5C 55.16,491.666 46.8267,491.5 38.5,491C 37.8333,490 37.1667,489 36.5,488C 37.4061,486.301 37.7394,484.467 37.5,482.5C 67.8333,452.5 98.1667,422.5 128.5,392.5 Z"/></g>
<g><path style="opacity:0.998" fill="#5a56ff" d="M 142.5,415.5 C 149.073,420.786 156.406,424.453 164.5,426.5C 163.448,426.351 162.448,426.517 161.5,427C 139.965,448.368 118.632,469.868 97.5,491.5C 86.1667,491.5 74.8333,491.5 63.5,491.5C 88.7984,465.701 114.298,440.035 140,414.5C 140.671,415.252 141.504,415.586 142.5,415.5 Z"/></g>
<g><path style="opacity:0.932" fill="#3771ff" d="M 315.5,410.5 C 329.004,423.224 345.004,428.557 363.5,426.5C 360.939,431.741 356.939,435.074 351.5,436.5C 334.848,435.172 320.848,428.505 309.5,416.5C 311.167,414.167 313.167,412.167 315.5,410.5 Z"/></g>
<g><path style="opacity:0.922" fill="#2580ff" d="M 428.5,397.5 C 429.638,414.123 429.804,430.789 429,447.5C 426.963,455.534 421.796,460.034 413.5,461C 394.859,463.164 376.193,464.997 357.5,466.5C 360.57,463.436 363.237,460.103 365.5,456.5C 382.601,455.457 399.601,453.623 416.5,451C 418.049,449.786 419.215,448.286 420,446.5C 420.5,431.504 420.667,416.504 420.5,401.5C 422.948,399.716 425.615,398.382 428.5,397.5 Z"/></g>
<g><path style="opacity:0.921" fill="#3375ff" d="M 365.5,456.5 C 363.237,460.103 360.57,463.436 357.5,466.5C 332.254,469.558 306.921,472.225 281.5,474.5C 285.315,470.335 289.648,467.001 294.5,464.5C 318.221,461.976 341.887,459.309 365.5,456.5 Z"/></g>
<g><path style="opacity:0.953" fill="#406bff" d="M 294.5,464.5 C 289.648,467.001 285.315,470.335 281.5,474.5C 263.5,476.5 245.5,478.5 227.5,480.5C 227.5,481.5 227.5,482.5 227.5,483.5C 242.5,483.5 257.5,483.5 272.5,483.5C 270.167,486.167 267.833,488.833 265.5,491.5C 250.496,491.667 235.496,491.5 220.5,491C 219.549,487.943 219.216,484.777 219.5,481.5C 212.437,481.788 205.437,481.288 198.5,480C 193.627,479.216 189.294,477.383 185.5,474.5C 188.427,473.243 190.761,471.243 192.5,468.5C 198.69,471.172 205.19,472.505 212,472.5C 239.509,469.866 267.009,467.199 294.5,464.5 Z"/></g>
<g><path style="opacity:1" fill="#3177ff" d="M 272.5,483.5 C 294.833,483.5 317.167,483.5 339.5,483.5C 337.167,486.167 334.833,488.833 332.5,491.5C 310.167,491.5 287.833,491.5 265.5,491.5C 267.833,488.833 270.167,486.167 272.5,483.5 Z"/></g>
<g><path style="opacity:1" fill="#2480ff" d="M 339.5,483.5 C 360.5,483.5 381.5,483.5 402.5,483.5C 400.167,486.167 397.833,488.833 395.5,491.5C 374.5,491.5 353.5,491.5 332.5,491.5C 334.833,488.833 337.167,486.167 339.5,483.5 Z"/></g>
<g><path style="opacity:1" fill="#1f8aff" d="M 452.5,399.5 C 452.382,424.207 452.382,448.373 452.5,472C 451.727,478.129 451.227,484.296 451,490.5C 432.576,491.493 414.076,491.826 395.5,491.5C 397.833,488.833 400.167,486.167 402.5,483.5C 416.167,483.5 429.833,483.5 443.5,483.5C 443.5,459.5 443.5,435.5 443.5,411.5C 448.151,408.545 451.151,404.545 452.5,399.5 Z"/></g>
</svg>
