<?xml version="1.0" encoding="UTF-8"?>
<!DOCTYPE svg PUBLIC "-//W3C//DTD SVG 1.1//EN" "http://www.w3.org/Graphics/SVG/1.1/DTD/svg11.dtd">
<svg xmlns="http://www.w3.org/2000/svg" version="1.1" width="512px" height="512px" style="shape-rendering:geometricPrecision; text-rendering:geometricPrecision; image-rendering:optimizeQuality; fill-rule:evenodd; clip-rule:evenodd" xmlns:xlink="http://www.w3.org/1999/xlink">
<g><path style="opacity:0.981" fill="#000033" d="M 316.5,56.5 C 378.254,53.7779 421.754,80.4445 447,136.5C 462.453,182.56 454.786,224.227 424,261.5C 406.5,279 389,296.5 371.5,314C 360.046,322.246 348.38,322.579 336.5,315C 325.439,303.922 323.606,291.422 331,277.5C 348,260.5 365,243.5 382,226.5C 403.896,200.178 406.229,172.178 389,142.5C 364.157,110.247 333.324,102.747 296.5,120C 292.217,122.615 288.217,125.615 284.5,129C 267.5,146 250.5,163 233.5,180C 218.621,187.862 205.788,185.362 195,172.5C 188.589,161.052 189.256,150.052 197,139.5C 216.195,119.971 235.695,100.805 255.5,82C 273.729,68.3168 294.063,59.8168 316.5,56.5 Z"/></g>
<g><path style="opacity:0.977" fill="#ffa522" d="M 312.5,167.5 C 335.395,168.889 345.228,180.889 342,203.5C 340.667,206.167 339.333,208.833 338,211.5C 295.833,253.667 253.667,295.833 211.5,338C 197.236,346.206 184.402,344.373 173,332.5C 165.676,321.462 165.676,310.462 173,299.5C 215.167,257.333 257.333,215.167 299.5,173C 303.686,170.566 308.02,168.733 312.5,167.5 Z"/></g>
<g><path style="opacity:0.982" fill="#000033" d="M 153.5,190.5 C 174.968,191.133 185.135,202.133 184,223.5C 183.058,226.993 181.725,230.326 180,233.5C 160.971,252.195 142.305,271.195 124,290.5C 103.668,322.855 106.501,353.022 132.5,381C 160.329,404.637 189.662,406.637 220.5,387C 239.805,368.695 258.805,350.029 277.5,331C 292.467,323.14 305.3,325.64 316,338.5C 322.411,349.948 321.744,360.948 314,371.5C 296.5,389 279,406.5 261.5,424C 222.345,456.024 179.012,463.024 131.5,445C 75.7467,417.005 51.2467,371.838 58,309.5C 62.3396,286.823 72.0062,266.823 87,249.5C 104.5,232 122,214.5 139.5,197C 143.892,193.967 148.559,191.8 153.5,190.5 Z"/></g>
</svg>
