<?xml version="1.0" encoding="UTF-8"?>
<!DOCTYPE svg PUBLIC "-//W3C//DTD SVG 1.1//EN" "http://www.w3.org/Graphics/SVG/1.1/DTD/svg11.dtd">
<svg xmlns="http://www.w3.org/2000/svg" version="1.1" width="512px" height="512px" style="shape-rendering:geometricPrecision; text-rendering:geometricPrecision; image-rendering:optimizeQuality; fill-rule:evenodd; clip-rule:evenodd" xmlns:xlink="http://www.w3.org/1999/xlink">
<g><path style="opacity:0.908" fill="#ffc967" d="M 257.5,30.5 C 258.822,30.33 259.989,30.6634 261,31.5C 261.977,33.74 262.477,36.0733 262.5,38.5C 266.548,38.3946 270.548,38.7279 274.5,39.5C 274.649,40.552 274.483,41.552 274,42.5C 271.357,43.9763 269.19,45.9763 267.5,48.5C 268.642,51.3992 269.308,54.3992 269.5,57.5C 265.336,57.8571 262.169,56.1905 260,52.5C 257.876,53.6217 256.043,55.1217 254.5,57C 252.294,57.7319 250.628,57.0652 249.5,55C 252.903,50.0389 251.903,46.2056 246.5,43.5C 245.386,42.277 245.219,40.9437 246,39.5C 249.057,38.5495 252.223,38.2161 255.5,38.5C 255.963,35.779 256.629,33.1123 257.5,30.5 Z"/></g>
<g><path style="opacity:0.927" fill="#ffca66" d="M 332.5,38.5 C 333.978,38.238 335.311,38.5713 336.5,39.5C 337.97,43.0485 338.97,46.7151 339.5,50.5C 344.099,50.2 348.599,50.5333 353,51.5C 353.667,52.8333 353.667,54.1667 353,55.5C 349.807,57.699 346.974,60.199 344.5,63C 345.781,66.8162 346.614,70.6496 347,74.5C 344.936,75.5914 342.769,75.7581 340.5,75C 338.252,73.0863 335.752,71.5863 333,70.5C 321.084,79.4343 317.918,76.7677 323.5,62.5C 318.714,59.748 316.047,55.748 315.5,50.5C 319.846,50.6657 324.179,50.499 328.5,50C 329.911,46.1847 331.245,42.3514 332.5,38.5 Z"/></g>
<g><path style="opacity:0.909" fill="#ffc966" d="M 193.5,57.5 C 194.496,57.4142 195.329,57.7476 196,58.5C 197.166,61.8276 198.332,65.1609 199.5,68.5C 203.459,69.3265 207.459,69.8265 211.5,70C 212.357,70.6891 213.023,71.5224 213.5,72.5C 210.003,75.2371 207.003,78.4038 204.5,82C 209.052,95.9346 205.552,98.1013 194,88.5C 181.669,98.1765 178.502,95.6765 184.5,81C 171.497,72.5199 172.831,68.3532 188.5,68.5C 189.61,64.4685 191.277,60.8018 193.5,57.5 Z"/></g>
<g><path style="opacity:0.931" fill="#ffca66" d="M 399.5,76.5 C 400.833,76.5 402.167,76.5 403.5,76.5C 404.03,80.2849 405.03,83.9515 406.5,87.5C 411.104,88.3163 415.604,88.6496 420,88.5C 420.667,89.8333 420.667,91.1667 420,92.5C 417.961,94.8745 415.628,96.8745 413,98.5C 412.833,99.1667 412.667,99.8333 412.5,100.5C 413.809,104.4 414.476,108.4 414.5,112.5C 409.276,112.308 404.776,110.308 401,106.5C 397.787,110.524 393.62,112.524 388.5,112.5C 388.713,107.738 389.213,103.072 390,98.5C 386.661,96.3266 383.828,93.6599 381.5,90.5C 381.709,89.914 382.043,89.414 382.5,89C 386.821,88.501 391.154,88.3343 395.5,88.5C 396.238,84.2854 397.572,80.2854 399.5,76.5 Z"/></g>
<g><path style="opacity:0.961" fill="#fad086" d="M 315.5,111.5 C 329.346,109.058 340.513,113.391 349,124.5C 358.506,140.847 363.84,158.514 365,177.5C 366.401,200.991 365.068,224.324 361,247.5C 354.71,277.071 350.21,306.904 347.5,337C 347.084,351.273 350.584,364.439 358,376.5C 367.109,385.825 377.275,386.992 388.5,380C 401.328,370.154 410.828,357.654 417,342.5C 420.921,332.149 423.588,321.482 425,310.5C 431.711,265.059 435.045,219.392 435,173.5C 434.132,157.926 427.632,145.426 415.5,136C 411.045,134.141 406.711,134.475 402.5,137C 390.65,146.53 384.65,158.697 384.5,173.5C 381.44,155.501 387.107,141.001 401.5,130C 409.321,125.353 416.987,125.686 424.5,131C 435.564,139.958 442.397,151.458 445,165.5C 446.844,177.65 448.011,189.817 448.5,202C 447.432,236.482 445.598,270.982 443,305.5C 441.869,332.908 432.869,357.241 416,378.5C 407.049,389.386 395.882,396.886 382.5,401C 362.823,404.412 348.323,397.245 339,379.5C 329.567,358.047 326.9,335.713 331,312.5C 335.229,286.023 340.229,259.69 346,233.5C 351.195,209.025 352.529,184.358 350,159.5C 348.905,146.761 344.905,135.094 338,124.5C 329.324,116.948 319.824,115.782 309.5,121C 290.339,130.495 277.172,145.329 270,165.5C 269.111,166.888 268.611,166.722 268.5,165C 275.241,139.106 290.907,121.272 315.5,111.5 Z"/></g>
<g><path style="opacity:0.908" fill="#ffca66" d="M 229.5,118.5 C 230.5,118.5 231.5,118.5 232.5,118.5C 231.931,126.569 235.431,129.236 243,126.5C 244.622,126.954 245.788,127.954 246.5,129.5C 244.644,132.19 242.311,134.356 239.5,136C 240.866,138.997 241.533,142.164 241.5,145.5C 237.452,145.559 234.285,143.892 232,140.5C 229.195,143.653 225.695,145.319 221.5,145.5C 221.257,142.117 221.924,138.951 223.5,136C 219.819,134.163 217.485,131.33 216.5,127.5C 219.833,127.5 223.167,127.5 226.5,127.5C 226.905,124.285 227.905,121.285 229.5,118.5 Z"/></g>
<g><path style="opacity:0.982" fill="#f5b948" d="M 206.5,295.5 C 206.665,292.15 206.498,288.817 206,285.5C 205.692,284.692 205.192,284.025 204.5,283.5C 200.212,282.589 195.879,281.922 191.5,281.5C 182.161,280.11 172.828,278.61 163.5,277C 157.975,274.081 156.142,269.581 158,263.5C 158.465,262.069 159.299,260.903 160.5,260C 172.343,253.578 184.343,247.411 196.5,241.5C 196.833,240.5 197.167,239.5 197.5,238.5C 195.603,225.204 194.437,211.87 194,198.5C 197.748,192.458 202.915,190.958 209.5,194C 219.042,203.876 228.875,213.376 239,222.5C 251.073,216.213 263.24,210.047 275.5,204C 285.004,203.511 288.837,208.011 287,217.5C 281.216,229.569 275.049,241.403 268.5,253C 278,262.5 287.5,272 297,281.5C 300.951,290.018 298.451,295.351 289.5,297.5C 275.587,295.394 261.753,293.061 248,290.5C 241.411,302.677 235.078,315.01 229,327.5C 222.912,333.111 217.245,332.778 212,326.5C 209.933,316.198 208.1,305.865 206.5,295.5 Z"/></g>
<g><path style="opacity:0.922" fill="#ffca66" d="M 114.5,214.5 C 115.978,214.238 117.311,214.571 118.5,215.5C 119.708,219.122 120.708,222.789 121.5,226.5C 126.179,226.334 130.845,226.501 135.5,227C 136.022,227.561 136.355,228.228 136.5,229C 133.52,232.163 130.52,235.33 127.5,238.5C 128.399,241.697 129.399,244.864 130.5,248C 129.831,249.847 128.497,251.014 126.5,251.5C 123.065,249.367 119.565,247.367 116,245.5C 104.358,254.537 101.191,252.037 106.5,238C 104.017,235.594 101.35,233.427 98.5,231.5C 97.5481,229.955 97.2148,228.288 97.5,226.5C 101.846,226.666 106.179,226.499 110.5,226C 111.735,222.128 113.068,218.295 114.5,214.5 Z"/></g>
<g><path style="opacity:0.893" fill="#ffca66" d="M 485.5,218.5 C 486.5,218.5 487.5,218.5 488.5,218.5C 488.548,221.313 489.215,223.979 490.5,226.5C 494.107,227.489 497.774,227.823 501.5,227.5C 500.264,231.27 497.931,234.437 494.5,237C 495.561,238.849 496.227,240.849 496.5,243C 496.612,244.662 495.946,245.829 494.5,246.5C 491.854,245.014 489.354,243.348 487,241.5C 484.562,243.981 481.729,245.481 478.5,246C 477.905,242.575 477.738,239.075 478,235.5C 476.622,233.787 474.955,232.453 473,231.5C 472.51,230.207 472.343,228.873 472.5,227.5C 475.898,227.82 479.232,227.487 482.5,226.5C 483.199,223.69 484.199,221.023 485.5,218.5 Z"/></g>
<g><path style="opacity:1" fill="#f9cf83" d="M 267.5,222.5 C 265.971,233.606 262.638,244.44 257.5,255C 265.264,263.428 272.264,272.428 278.5,282C 273.188,279.831 268.188,276.831 263.5,273C 257.801,268.298 252.467,263.298 247.5,258C 253.177,245.519 259.844,233.686 267.5,222.5 Z"/></g>
<g><path style="opacity:0.895" fill="#ffca66" d="M 389.5,248.5 C 390.822,248.33 391.989,248.663 393,249.5C 393.761,252.053 394.594,254.553 395.5,257C 399.152,257.499 402.818,257.665 406.5,257.5C 406.649,258.552 406.483,259.552 406,260.5C 403.697,262.393 401.53,264.393 399.5,266.5C 400.642,269.399 401.308,272.399 401.5,275.5C 397.336,275.857 394.169,274.19 392,270.5C 390.075,271.88 388.241,273.38 386.5,275C 384.294,275.732 382.628,275.065 381.5,273C 384.903,268.039 383.903,264.206 378.5,261.5C 377.571,260.311 377.238,258.978 377.5,257.5C 380.833,257.5 384.167,257.5 387.5,257.5C 388.01,254.461 388.677,251.461 389.5,248.5 Z"/></g>
<g><path style="opacity:0.993" fill="#444445" d="M 160.5,344.5 C 159.928,346.255 159.094,347.922 158,349.5C 128.946,380.957 99.4458,411.957 69.5,442.5C 63.5947,435.089 57.0947,428.089 50,421.5C 49.3333,420.833 49.3333,420.167 50,419.5C 81.6667,389.833 113.333,360.167 145,330.5C 149.759,335.766 154.925,340.433 160.5,344.5 Z"/></g>
<g><path style="opacity:0.893" fill="#ffca66" d="M 276.5,347.5 C 277.5,347.5 278.5,347.5 279.5,347.5C 279.851,350.238 280.518,352.904 281.5,355.5C 285.107,356.489 288.774,356.823 292.5,356.5C 292.657,357.873 292.49,359.207 292,360.5C 290.045,361.453 288.378,362.787 287,364.5C 286.938,368.148 287.105,371.815 287.5,375.5C 285.692,375.509 284.025,375.009 282.5,374C 281.275,372.437 279.775,371.27 278,370.5C 275.562,372.981 272.729,374.481 269.5,375C 268.905,371.575 268.738,368.075 269,364.5C 267.622,362.787 265.955,361.453 264,360.5C 263.51,359.207 263.343,357.873 263.5,356.5C 266.898,356.82 270.232,356.487 273.5,355.5C 274.508,352.805 275.508,350.138 276.5,347.5 Z"/></g>
<g><path style="opacity:0.97" fill="#fdc966" d="M 191.5,281.5 C 195.879,281.922 200.212,282.589 204.5,283.5C 205.192,284.025 205.692,284.692 206,285.5C 206.498,288.817 206.665,292.15 206.5,295.5C 191.195,311.807 175.861,328.14 160.5,344.5C 154.925,340.433 149.759,335.766 145,330.5C 113.333,360.167 81.6667,389.833 50,419.5C 49.3333,420.167 49.3333,420.833 50,421.5C 57.0947,428.089 63.5947,435.089 69.5,442.5C 58.0335,454.135 46.7002,465.968 35.5,478C 26.7753,483.03 18.9419,481.863 12,474.5C 7.78733,468.017 7.454,461.35 11,454.5C 71.3653,396.966 131.532,339.3 191.5,281.5 Z"/></g>
</svg>
