<?xml version="1.0" encoding="UTF-8"?>
<!DOCTYPE svg PUBLIC "-//W3C//DTD SVG 1.1//EN" "http://www.w3.org/Graphics/SVG/1.1/DTD/svg11.dtd">
<svg xmlns="http://www.w3.org/2000/svg" version="1.1" width="512px" height="512px" style="shape-rendering:geometricPrecision; text-rendering:geometricPrecision; image-rendering:optimizeQuality; fill-rule:evenodd; clip-rule:evenodd" xmlns:xlink="http://www.w3.org/1999/xlink">
<g><path style="opacity:0.922" fill="#000000" d="M 365.5,-0.5 C 366.167,-0.5 366.833,-0.5 367.5,-0.5C 370.988,5.80619 374.488,12.1395 378,18.5C 384.582,22.2073 391.082,26.0406 397.5,30C 391.082,33.9594 384.582,37.7927 378,41.5C 374.333,48.1667 370.667,54.8333 367,61.5C 363.159,55.8223 359.826,49.8223 357,43.5C 355.833,42.3333 354.667,41.1667 353.5,40C 347.5,36.6667 341.5,33.3333 335.5,30C 342.414,26.2934 349.248,22.46 356,18.5C 359.193,12.1136 362.36,5.78022 365.5,-0.5 Z"/></g>
<g><path style="opacity:0.934" fill="#000000" d="M 158.5,41.5 C 159.376,41.3691 160.043,41.7025 160.5,42.5C 164.667,50.1667 168.833,57.8333 173,65.5C 181.286,70.3888 189.453,75.3888 197.5,80.5C 189.662,85.2533 181.662,89.7533 173.5,94C 168.96,102.248 164.293,110.415 159.5,118.5C 154.747,110.662 150.247,102.662 146,94.5C 137.586,90.0446 129.419,85.2113 121.5,80C 129.749,75.2926 137.916,70.4593 146,65.5C 150.447,57.6038 154.614,49.6038 158.5,41.5 Z"/></g>
<g><path style="opacity:0.974" fill="#000000" d="M 31.5,511.5 C 27.5,511.5 23.5,511.5 19.5,511.5C 7.24504,503.481 5.41171,493.481 14,481.5C 99.1667,396.333 184.333,311.167 269.5,226C 253.216,221.461 237.216,216.128 221.5,210C 214.703,202.638 213.703,194.471 218.5,185.5C 236.735,171.799 255.235,158.466 274,145.5C 274.333,121.833 274.667,98.1667 275,74.5C 278.241,66.7649 284.074,62.7649 292.5,62.5C 296.879,63.523 300.879,65.3563 304.5,68C 320.729,80.5669 337.229,92.7336 354,104.5C 374.511,97.663 395.011,90.8297 415.5,84C 428.105,82.435 435.438,87.935 437.5,100.5C 430.666,122.835 423.333,145.002 415.5,167C 429.122,185.077 442.622,203.244 456,221.5C 459.817,233.362 455.984,241.529 444.5,246C 421.497,246.211 398.497,246.211 375.5,246C 362.667,264.167 349.833,282.333 337,300.5C 327.477,307.554 318.477,306.888 310,298.5C 304.507,282.847 299.173,267.181 294,251.5C 208.833,336.667 123.667,421.833 38.5,507C 36.1019,508.524 33.7686,510.024 31.5,511.5 Z"/></g>
<g><path style="opacity:0.873" fill="#000000" d="M 483.5,129.5 C 486.144,132.773 488.311,136.44 490,140.5C 494.033,143.364 498.199,146.031 502.5,148.5C 498.079,150.792 493.912,153.459 490,156.5C 487.746,160.007 485.746,163.673 484,167.5C 481.162,163.828 478.829,159.828 477,155.5C 472.585,153.377 468.418,150.877 464.5,148C 468.66,146.088 472.66,143.921 476.5,141.5C 478.845,137.472 481.178,133.472 483.5,129.5 Z"/></g>
<g><path style="opacity:0.941" fill="#000000" d="M 438.5,293.5 C 447.53,295.674 456.53,298.008 465.5,300.5C 474.462,297.956 483.462,295.622 492.5,293.5C 490.336,302.492 487.669,311.325 484.5,320C 487.467,329.069 490.134,338.236 492.5,347.5C 483.236,345.134 474.069,342.467 465,339.5C 456.325,342.669 447.492,345.336 438.5,347.5C 440.622,338.462 442.956,329.462 445.5,320.5C 443.008,311.53 440.674,302.53 438.5,293.5 Z"/></g>
<g><path style="opacity:0.921" fill="#000000" d="M 351.5,363.5 C 355.559,369.941 359.392,376.607 363,383.5C 369.419,387.293 375.919,390.96 382.5,394.5C 376.447,398.53 370.114,402.197 363.5,405.5C 359.485,412.202 355.485,418.869 351.5,425.5C 347.5,418.833 343.5,412.167 339.5,405.5C 333.167,402 326.833,398.5 320.5,395C 327.417,390.959 334.25,386.792 341,382.5C 344.512,376.14 348.012,369.806 351.5,363.5 Z"/></g>
</svg>
