<?xml version="1.0" encoding="UTF-8"?>
<!DOCTYPE svg PUBLIC "-//W3C//DTD SVG 1.1//EN" "http://www.w3.org/Graphics/SVG/1.1/DTD/svg11.dtd">
<svg xmlns="http://www.w3.org/2000/svg" version="1.1" width="512px" height="512px" style="shape-rendering:geometricPrecision; text-rendering:geometricPrecision; image-rendering:optimizeQuality; fill-rule:evenodd; clip-rule:evenodd" xmlns:xlink="http://www.w3.org/1999/xlink">
<g><path style="opacity:0.969" fill="#000000" d="M 161.5,47.5 C 224.168,47.3333 286.834,47.5 349.5,48C 368.497,48.4281 387.163,51.0948 405.5,56C 441.494,68.6613 465.328,93.1613 477,129.5C 480.079,140.64 482.079,151.973 483,163.5C 486.321,224.834 486.321,286.167 483,347.5C 480.793,395.135 458.626,429.635 416.5,451C 394.874,458.771 372.541,462.771 349.5,463C 309.167,463.667 268.833,463.667 228.5,463C 217.91,457.564 215.076,449.397 220,438.5C 222.287,435.538 225.12,433.371 228.5,432C 268.836,431.48 309.169,430.814 349.5,430C 414.942,430.888 448.775,398.722 451,333.5C 452.506,290.511 452.84,247.511 452,204.5C 451.992,186.399 450.658,168.399 448,150.5C 423.833,174.667 399.667,198.833 375.5,223C 360.425,237.412 344.758,251.079 328.5,264C 279.833,300.667 231.167,300.667 182.5,264C 166.242,251.079 150.575,237.412 135.5,223C 111.333,198.833 87.1667,174.667 63,150.5C 61.589,159.455 60.589,168.455 60,177.5C 58.9883,205.158 58.3216,232.824 58,260.5C 54.0162,270.241 46.8495,273.741 36.5,271C 31.2425,268.744 27.7425,264.91 26,259.5C 25.1435,227.466 25.8101,195.466 28,163.5C 30.2071,115.865 52.3737,81.3653 94.5,60C 116.313,52.3669 138.646,48.2002 161.5,47.5 Z M 210.5,79.5 C 256.84,79.363 303.173,79.863 349.5,81C 366.541,81.4342 383.208,84.1008 399.5,89C 413.84,95.0078 425.506,104.341 434.5,117C 399.443,152.724 363.777,187.724 327.5,222C 313.718,234.061 298.718,244.395 282.5,253C 261.209,261.369 240.543,260.035 220.5,249C 207.606,240.773 195.273,231.773 183.5,222C 147.223,187.724 111.557,152.724 76.5,117C 86.7456,102.372 100.412,92.3722 117.5,87C 127.359,84.4963 137.359,82.8296 147.5,82C 168.653,81.0237 189.653,80.1904 210.5,79.5 Z"/></g>
<g><path style="opacity:0.957" fill="#000000" d="M 15.5,324.5 C 40.1689,324.333 64.8356,324.5 89.5,325C 98.3258,328.477 102.159,334.977 101,344.5C 99.5,351.333 95.3333,355.5 88.5,357C 64.8333,357.667 41.1667,357.667 17.5,357C 5.03866,352.297 1.53866,343.797 7,331.5C 9.44117,328.546 12.2745,326.213 15.5,324.5 Z"/></g>
<g><path style="opacity:0.963" fill="#000000" d="M 15.5,388.5 C 61.5012,388.333 107.501,388.5 153.5,389C 161.113,391.536 165.113,396.869 165.5,405C 164.705,413.279 160.372,418.612 152.5,421C 107.5,421.667 62.5,421.667 17.5,421C 5.03866,416.297 1.53866,407.797 7,395.5C 9.44117,392.546 12.2745,390.213 15.5,388.5 Z"/></g>
</svg>
