<?xml version="1.0" encoding="UTF-8"?>
<!DOCTYPE svg PUBLIC "-//W3C//DTD SVG 1.1//EN" "http://www.w3.org/Graphics/SVG/1.1/DTD/svg11.dtd">
<svg xmlns="http://www.w3.org/2000/svg" version="1.1" width="512px" height="512px" style="shape-rendering:geometricPrecision; text-rendering:geometricPrecision; image-rendering:optimizeQuality; fill-rule:evenodd; clip-rule:evenodd" xmlns:xlink="http://www.w3.org/1999/xlink">
<g><path style="opacity:0.962" fill="#000000" d="M 511.5,220.5 C 511.5,233.833 511.5,247.167 511.5,260.5C 499.511,336.961 458.511,391.794 388.5,425C 328.296,449.921 265.962,457.255 201.5,447C 191.365,445.407 181.365,443.24 171.5,440.5C 133.576,475.355 88.9094,488.688 37.5,480.5C 50.2166,467.952 62.3833,454.952 74,441.5C 81.0175,430.461 85.5175,418.461 87.5,405.5C 77.9121,397.688 68.2455,389.855 58.5,382C 25.4574,351.08 5.79072,313.247 -0.5,268.5C -0.5,255.833 -0.5,243.167 -0.5,230.5C 11.6551,157.173 49.9884,102.006 114.5,65C 169.314,35.9181 227.647,24.5847 289.5,31C 342.147,34.5454 389.814,51.5454 432.5,82C 477.889,117.277 504.223,163.443 511.5,220.5 Z M 242.5,60.5 C 287.51,58.6125 330.844,66.1125 372.5,83C 454.099,121.693 488.932,185.86 477,275.5C 464.709,323.437 437.543,360.27 395.5,386C 352.622,409.613 306.622,421.113 257.5,420.5C 224.745,420.263 192.745,415.263 161.5,405.5C 152.362,414.8 142.695,423.633 132.5,432C 125.164,437.338 117.164,441.005 108.5,443C 116.959,425.079 120.292,406.246 118.5,386.5C 87.1369,368.97 62.6369,344.637 45,313.5C 26.4232,273.751 25.0898,233.418 41,192.5C 67.1066,132.731 111.273,92.8973 173.5,73C 196.169,66.2238 219.169,62.0571 242.5,60.5 Z"/></g>
</svg>
