<?xml version="1.0" encoding="UTF-8"?>
<!DOCTYPE svg PUBLIC "-//W3C//DTD SVG 1.1//EN" "http://www.w3.org/Graphics/SVG/1.1/DTD/svg11.dtd">
<svg xmlns="http://www.w3.org/2000/svg" version="1.1" width="512px" height="512px" style="shape-rendering:geometricPrecision; text-rendering:geometricPrecision; image-rendering:optimizeQuality; fill-rule:evenodd; clip-rule:evenodd" xmlns:xlink="http://www.w3.org/1999/xlink">
<g><path style="opacity:0.958" fill="#000100" d="M 242.5,-0.5 C 251.167,-0.5 259.833,-0.5 268.5,-0.5C 312.238,10.7598 334.072,39.0931 334,84.5C 328.724,121.777 307.891,145.277 271.5,155C 234.191,160.592 205.691,147.425 186,115.5C 169.683,79.5106 175.183,47.3439 202.5,19C 214.182,8.99184 227.515,2.49184 242.5,-0.5 Z"/></g>
<g><path style="opacity:1" fill="#6fd83f" d="M 202.5,109.5 C 200.518,103.912 198.684,98.245 197,92.5C 196.058,87.5466 195.558,82.5466 195.5,77.5C 195.755,68.6406 197.088,59.9739 199.5,51.5C 212.613,25.9268 233.613,14.0935 262.5,16C 291.544,21.0429 309.711,37.8762 317,66.5C 319.997,104.721 303.164,128.887 266.5,139C 238.586,142.87 217.253,133.036 202.5,109.5 Z"/></g>
<g><path style="opacity:1" fill="#020401" d="M 285.5,50.5 C 295.118,50.2711 298.284,54.6044 295,63.5C 281.138,77.696 266.971,91.5293 252.5,105C 250.029,105.706 247.695,105.373 245.5,104C 234.97,93.804 224.803,83.304 215,72.5C 213.674,64.8288 216.841,61.3288 224.5,62C 232.984,69.6502 241.318,77.4835 249.5,85.5C 261.547,73.7846 273.547,62.1179 285.5,50.5 Z"/></g>
<g><path style="opacity:1" fill="#5db535" d="M 199.5,51.5 C 197.088,59.9739 195.755,68.6406 195.5,77.5C 195.558,82.5466 196.058,87.5466 197,92.5C 198.684,98.245 200.518,103.912 202.5,109.5C 194.31,96.3898 191.477,82.0565 194,66.5C 194.773,61.005 196.606,56.005 199.5,51.5 Z"/></g>
<g><path style="opacity:0.959" fill="#020100" d="M 111.5,84.5 C 117.369,84.0657 122.202,86.0657 126,90.5C 129.262,99.4513 132.428,108.451 135.5,117.5C 145.149,118.332 154.816,118.832 164.5,119C 173.044,122.252 176.211,128.419 174,137.5C 173.333,138.833 172.667,140.167 172,141.5C 164.167,147.333 156.333,153.167 148.5,159C 151.959,168.163 154.959,177.496 157.5,187C 155.81,198.017 149.477,202.351 138.5,200C 130.326,194.747 122.326,189.247 114.5,183.5C 107.5,188.667 100.5,193.833 93.5,199C 81.7477,203.293 74.4144,199.459 71.5,187.5C 74.2068,177.881 77.2068,168.381 80.5,159C 73.1667,153.667 65.8333,148.333 58.5,143C 52.9271,135.396 53.2604,128.063 59.5,121C 61.087,120.138 62.7536,119.471 64.5,119C 74.1838,118.832 83.8505,118.332 93.5,117.5C 96.5716,108.451 99.7382,99.4513 103,90.5C 105.322,87.6047 108.155,85.6047 111.5,84.5 Z"/></g>
<g><path style="opacity:0.959" fill="#010000" d="M 393.5,84.5 C 399.369,84.0657 404.202,86.0657 408,90.5C 411.262,99.4513 414.428,108.451 417.5,117.5C 427.149,118.332 436.816,118.832 446.5,119C 455.044,122.252 458.211,128.419 456,137.5C 455.333,138.833 454.667,140.167 454,141.5C 446.167,147.333 438.333,153.167 430.5,159C 434.036,168.307 437.036,177.807 439.5,187.5C 437.518,198.163 431.185,202.33 420.5,200C 412.326,194.747 404.326,189.247 396.5,183.5C 388.674,189.247 380.674,194.747 372.5,200C 361.815,202.33 355.482,198.163 353.5,187.5C 355.964,177.807 358.964,168.307 362.5,159C 355.167,153.667 347.833,148.333 340.5,143C 334.927,135.396 335.26,128.063 341.5,121C 343.087,120.138 344.754,119.471 346.5,119C 356.184,118.832 365.851,118.332 375.5,117.5C 378.572,108.451 381.738,99.4513 385,90.5C 387.322,87.6047 390.155,85.6047 393.5,84.5 Z"/></g>
<g><path style="opacity:1" fill="#f9cf00" d="M 113.5,108.5 C 114.497,108.47 115.164,108.97 115.5,110C 117.536,117.787 120.536,125.12 124.5,132C 126.5,133 128.5,134 130.5,135C 137.5,135.333 144.5,135.667 151.5,136C 146.833,139.333 142.167,142.667 137.5,146C 133.787,148.925 131.787,152.758 131.5,157.5C 133.876,164.777 135.71,172.11 137,179.5C 131.833,175.667 126.667,171.833 121.5,168C 116.833,166 112.167,166 107.5,168C 102.333,171.833 97.1667,175.667 92,179.5C 92.6221,173.288 94.2888,167.288 97,161.5C 98.1449,155.268 96.3116,150.101 91.5,146C 86.8333,142.667 82.1667,139.333 77.5,136C 84.5,135.667 91.5,135.333 98.5,135C 103.245,133.885 106.412,131.052 108,126.5C 110.143,120.572 111.977,114.572 113.5,108.5 Z"/></g>
<g><path style="opacity:1" fill="#f6cc00" d="M 395.5,108.5 C 396.497,108.47 397.164,108.97 397.5,110C 399.536,117.787 402.536,125.12 406.5,132C 407.833,132.667 409.167,133.333 410.5,134C 418.5,134.333 426.5,134.667 434.5,135C 429.678,138.911 424.678,142.578 419.5,146C 415.64,149.054 413.64,153.054 413.5,158C 415.971,165.066 417.804,172.233 419,179.5C 413.833,175.667 408.667,171.833 403.5,168C 398.833,166 394.167,166 389.5,168C 384.333,171.833 379.167,175.667 374,179.5C 374.622,173.288 376.289,167.288 379,161.5C 380.145,155.268 378.312,150.101 373.5,146C 368.322,142.578 363.322,138.911 358.5,135C 366.5,134.667 374.5,134.333 382.5,134C 386.333,132.833 388.833,130.333 390,126.5C 392.143,120.572 393.977,114.572 395.5,108.5 Z"/></g>
<g><path style="opacity:0.957" fill="#000001" d="M 251.5,215.5 C 288.374,217.208 309.041,236.375 313.5,273C 308.599,313.9 285.599,332.9 244.5,330C 215.314,322.483 199.647,303.65 197.5,273.5C 200.759,240.247 218.759,220.914 251.5,215.5 Z"/></g>
<g><path style="opacity:1" fill="#0491f9" d="M 246.5,232.5 C 271.703,230.003 288.203,240.669 296,264.5C 298.984,287.039 290.151,302.873 269.5,312C 244.044,318.522 226.211,309.689 216,285.5C 211.221,259.043 221.387,241.376 246.5,232.5 Z"/></g>
<g><path style="opacity:0.961" fill="#000001" d="M 320.5,511.5 C 277.167,511.5 233.833,511.5 190.5,511.5C 182.959,508.455 178.793,502.789 178,494.5C 177.667,469.833 177.333,445.167 177,420.5C 152.748,379.664 128.748,338.664 105,297.5C 98.0169,279.273 101.517,263.439 115.5,250C 135.12,237.576 153.287,239.41 170,255.5C 187.252,284.336 204.252,313.336 221,342.5C 221.689,343.357 222.522,344.023 223.5,344.5C 245.185,338.063 266.851,337.896 288.5,344C 306.126,314.583 323.626,285.083 341,255.5C 361,236.833 381,236.833 401,255.5C 409.045,266.352 411.378,278.352 408,291.5C 384.119,334.925 359.453,377.925 334,420.5C 333.667,444.833 333.333,469.167 333,493.5C 332.502,502.196 328.335,508.196 320.5,511.5 Z"/></g>
<g><path style="opacity:1" fill="#0492fa" d="M 133.5,258.5 C 143.511,256.593 151.677,259.593 158,267.5C 175,296.5 192,325.5 209,354.5C 212.64,358.156 216.974,360.156 222,360.5C 228.542,359.604 235.042,358.437 241.5,357C 250.833,356.333 260.167,356.333 269.5,357C 276.956,359.783 284.623,360.783 292.5,360C 299.573,357.928 304.406,353.428 307,346.5C 322.081,320.003 337.414,293.669 353,267.5C 359.984,258.617 368.817,256.117 379.5,260C 392.139,266.44 395.973,276.274 391,289.5C 366.333,332.167 341.667,374.833 317,417.5C 316.828,443.406 316.328,469.239 315.5,495C 275.262,495.83 235.096,495.663 195,494.5C 194.667,468.833 194.333,443.167 194,417.5C 170.732,376.574 147.066,335.908 123,295.5C 113.606,279.4 117.106,267.067 133.5,258.5 Z"/></g>
</svg>
