<?xml version="1.0" encoding="UTF-8"?>
<!DOCTYPE svg PUBLIC "-//W3C//DTD SVG 1.1//EN" "http://www.w3.org/Graphics/SVG/1.1/DTD/svg11.dtd">
<svg xmlns="http://www.w3.org/2000/svg" version="1.1" width="512px" height="512px" style="shape-rendering:geometricPrecision; text-rendering:geometricPrecision; image-rendering:optimizeQuality; fill-rule:evenodd; clip-rule:evenodd" xmlns:xlink="http://www.w3.org/1999/xlink">
<g><path style="opacity:0.985" fill="#40045a" d="M 79.5,45.5 C 180.167,45.3333 280.834,45.5 381.5,46C 404.241,50.7411 417.408,64.5744 421,87.5C 421.667,141.167 421.667,194.833 421,248.5C 364.48,226.203 315.147,236.87 273,280.5C 250.729,308.485 240.563,340.485 242.5,376.5C 188.166,376.667 133.832,376.5 79.5,376C 57.6667,371.5 44.5,358.333 40,336.5C 39.3333,252.833 39.3333,169.167 40,85.5C 44.6805,63.6535 57.8471,50.3201 79.5,45.5 Z M 84.5,71.5 C 183.536,71.0115 282.536,71.5115 381.5,73C 387.758,75.5903 391.925,80.0903 394,86.5C 394.667,113.833 394.667,141.167 394,168.5C 376.569,159.415 358.069,156.249 338.5,159C 322.059,161.889 307.392,168.556 294.5,179C 272.333,200.5 250.167,222 228,243.5C 219.679,233.837 210.179,225.67 199.5,219C 174.645,208.2 151.645,211.2 130.5,228C 109.305,249.529 87.8052,270.695 66,291.5C 65.3333,224.5 65.3333,157.5 66,90.5C 67.6793,79.6554 73.8459,73.3221 84.5,71.5 Z"/></g>
<g><path style="opacity:0.985" fill="#41035a" d="M 159.5,96.5 C 188.78,94.8749 206.947,108.208 214,136.5C 216.329,157.336 208.829,173.503 191.5,185C 169.054,195.908 148.887,192.742 131,175.5C 116.062,155.09 115.729,134.424 130,113.5C 138.043,104.567 147.876,98.9001 159.5,96.5 Z"/></g>
<g><path style="opacity:0.975" fill="#a085ec" d="M 362.5,260.5 C 415.408,260.846 450.575,285.846 468,335.5C 478.711,385.408 462.877,424.241 420.5,452C 379.388,472.651 340.388,469.317 303.5,442C 267.925,408.471 258.425,368.638 275,322.5C 292.713,285.614 321.88,264.947 362.5,260.5 Z M 363.5,287.5 C 404.824,288.004 431.324,308.004 443,347.5C 448.253,388.505 432.087,417.338 394.5,434C 358.829,444.109 329.662,434.609 307,405.5C 288.658,375.198 289.658,345.531 310,316.5C 324.149,299.845 341.982,290.179 363.5,287.5 Z"/></g>
<g><path style="opacity:0.975" fill="#a085ec" d="M 365.5,314.5 C 369.308,314.163 372.974,314.663 376.5,316C 388.97,329.471 401.804,342.638 415,355.5C 421.965,361.932 422.132,368.432 415.5,375C 404.912,376.429 394.245,376.929 383.5,376.5C 383.899,386.898 383.399,397.232 382,407.5C 374,416.833 366,416.833 358,407.5C 356.601,397.232 356.101,386.898 356.5,376.5C 346.161,376.666 335.828,376.5 325.5,376C 323.333,375.167 321.833,373.667 321,371.5C 320.333,368.5 320.333,365.5 321,362.5C 334.993,345.676 349.826,329.676 365.5,314.5 Z"/></g>
</svg>
